<?xml version="1.0" encoding="UTF-8"?>
<svg version="1.1" xmlns="http://www.w3.org/2000/svg" width="334" height="334">
<path d="M0 0 C2.57463004 2.49791853 4.29230122 4.95100808 6.09765625 8.03515625 C6.75765625 8.36515625 7.41765625 8.69515625 8.09765625 9.03515625 C8.37609375 8.44476563 8.65453125 7.854375 8.94140625 7.24609375 C13.21692524 -0.92939189 20.5147154 -5.7788901 28.9609375 -9.0859375 C43.11957563 -13.05317732 57.20955229 -10.57803095 70.09765625 -3.96484375 C81.2101055 2.59606807 89.34703469 11.64615681 94.53515625 23.41015625 C97.92793614 30.71830061 101.94954817 32.87870792 109.09765625 36.03515625 C117.04388588 41.53639214 124.21880104 51.38698082 126.09765625 61.03515625 C125.3046875 63.125 125.3046875 63.125 124.09765625 65.03515625 C123.47890625 66.08703125 122.86015625 67.13890625 122.22265625 68.22265625 C119.935268 71.25008187 119.54357822 71.34597186 116.09765625 72.03515625 C114.81328891 74.01893295 114.81328891 74.01893295 114.09765625 76.03515625 C113.43765625 76.03515625 112.77765625 76.03515625 112.09765625 76.03515625 C111.66066406 74.56755859 111.66066406 74.56755859 111.21484375 73.0703125 C107.02351044 59.09572095 107.02351044 59.09572095 96.84765625 49.16015625 C92.12636597 46.83570499 87.18383937 45.34121162 82.09765625 44.03515625 C82.01515625 42.90078125 81.93265625 41.76640625 81.84765625 40.59765625 C81.20287312 35.58071355 79.45065865 31.48308981 77.09765625 27.03515625 C76.69804687 26.27976563 76.2984375 25.524375 75.88671875 24.74609375 C71.93529922 18.09948633 66.62623719 14.05419596 60.09765625 10.03515625 C59.47375 9.65101562 58.84984375 9.266875 58.20703125 8.87109375 C50.94002173 5.3685261 40.16806907 5.83902029 32.46484375 7.65625 C25.2404044 10.84350265 20.51847399 17.29203083 17.72265625 24.47265625 C14.90680303 32.49171651 14.95116254 40.96646749 14.98413086 49.37255859 C14.98391182 50.85959793 14.98391182 50.85959793 14.98368835 52.37667847 C14.98438007 55.62483985 14.99213899 58.87294249 15 62.12109375 C15.00186723 64.38790862 15.00328969 66.65472389 15.00428772 68.92153931 C15.00809232 74.86823657 15.01790272 80.81490913 15.0289917 86.76159668 C15.03923707 92.82543607 15.0437955 98.88927944 15.04882812 104.953125 C15.0590563 116.33482005 15.07482475 127.71649894 15.09486294 139.09818077 C15.09723614 140.74383782 15.09765625 142.38949749 15.09765625 144.03515625 C14.10765625 143.37515625 13.11765625 142.71515625 12.09765625 142.03515625 C12.09765625 141.37515625 12.09765625 140.71515625 12.09765625 140.03515625 C11.32421875 139.69484375 11.32421875 139.69484375 10.53515625 139.34765625 C5.97002064 136.88950631 1.99426565 134.38007035 -0.90234375 130.03515625 C-2.14875077 123.56554098 -2.03012505 116.85347278 -1.96484375 110.2890625 C-1.95598215 108.40063548 -1.94728142 106.5122077 -1.9387207 104.6237793 C-1.93248688 103.64130219 -1.92625305 102.65882507 -1.91983032 101.64657593 C-1.82493907 85.10154928 -1.85427805 68.55530914 -2.16479492 52.01266479 C-2.19784544 50.1702396 -2.22593782 48.32771798 -2.2487793 46.48513794 C-2.20029184 28.35998596 -2.20029184 28.35998596 -10.90234375 13.03515625 C-19.19628947 6.67426162 -26.60672005 6.44293011 -36.90234375 7.03515625 C-46.5922311 8.53050924 -55.14343481 15.16450384 -60.83984375 22.91015625 C-63.53251827 27.07156233 -65.44434885 31.33175003 -67.078125 36.00390625 C-67.90234375 38.03515625 -67.90234375 38.03515625 -69.90234375 40.03515625 C-71.57355177 40.66364474 -73.26464427 41.2399446 -74.96484375 41.78515625 C-85.5647393 45.554008 -93.75704697 51.9577033 -99.21484375 61.91015625 C-102.41576102 68.93285836 -103.31415306 75.50550661 -101.90234375 83.03515625 C-102.23234375 83.69515625 -102.56234375 84.35515625 -102.90234375 85.03515625 C-101.78859375 84.70515625 -100.67484375 84.37515625 -99.52734375 84.03515625 C-89.28031459 81.52752059 -79.61782212 83.07370876 -70.52734375 88.41015625 C-66.69663962 90.98717539 -63.99427759 93.77849297 -61.96484375 97.97265625 C-61.86503085 101.26648179 -63.17439667 103.29427467 -64.90234375 106.03515625 C-67.40432181 108.01948368 -68.63392889 108.04657816 -71.83984375 107.91015625 C-75.31498463 106.91725886 -77.1893963 105.37130544 -79.90234375 103.03515625 C-80.56234375 103.03515625 -81.22234375 103.03515625 -81.90234375 103.03515625 C-81.90234375 102.37515625 -81.90234375 101.71515625 -81.90234375 101.03515625 C-90.78121344 99.8581303 -98.0271686 99.29505082 -105.90234375 104.03515625 C-111.77690727 108.88805655 -116.27028933 115.32446475 -117.12475586 123.04467773 C-117.24295081 125.29597385 -117.28207042 127.53076988 -117.27734375 129.78515625 C-117.27573242 130.58139404 -117.27412109 131.37763184 -117.27246094 132.19799805 C-117.14191309 138.47773371 -116.0902231 143.54800504 -112.90234375 149.03515625 C-112.34546875 150.08703125 -111.78859375 151.13890625 -111.21484375 152.22265625 C-108.49501183 154.3544164 -107.79798198 154.25961517 -104.46484375 153.97265625 C-101.05058645 153.4441886 -97.93753233 152.71009309 -94.90234375 151.03515625 C-93.64419713 148.49812063 -93.64419713 148.49812063 -92.96484375 145.47265625 C-90.35157113 136.81359816 -86.59670252 130.16396399 -78.7578125 125.3203125 C-72.77019436 122.62547479 -66.30598945 121.37088603 -59.90234375 120.03515625 C-59.90234375 120.69515625 -59.90234375 121.35515625 -59.90234375 122.03515625 C-58.26265625 122.18984375 -58.26265625 122.18984375 -56.58984375 122.34765625 C-52.90234375 123.03515625 -52.90234375 123.03515625 -51.02734375 124.28515625 C-49.46582102 126.71419161 -48.96875348 128.1131281 -48.90234375 131.03515625 C-49.85467665 133.69492625 -51.08317119 135.8719735 -52.90234375 138.03515625 C-55.47496778 139.17013744 -57.39260229 139.08181652 -60.1640625 138.828125 C-65.4455924 138.48033666 -68.33014952 138.79000105 -72.46484375 142.28515625 C-76.40820426 145.99842127 -76.80923056 148.59190176 -77.15234375 153.91015625 C-77.11511893 157.90810234 -75.92027353 160.56431703 -73.90234375 164.03515625 C-73.57234375 165.02515625 -73.24234375 166.01515625 -72.90234375 167.03515625 C-71.06739158 168.15095392 -71.06739158 168.15095392 -68.90234375 169.03515625 C-68.26296875 169.38835937 -67.62359375 169.7415625 -66.96484375 170.10546875 C-61.29876865 173.00289352 -56.94825369 173.15888367 -50.65234375 172.91796875 C-46.58179681 173.09142956 -44.86205198 174.31542436 -41.90234375 177.03515625 C-40.74356061 179.35272253 -40.84894451 180.47329288 -40.98046875 183.03515625 C-41.74226445 196.40513643 -41.74226445 196.40513643 -35.90234375 208.03515625 C-32.4422708 210.94104914 -28.65383431 212.68067957 -24.58984375 214.59765625 C-21.6925431 216.1473752 -20.33764796 217.08011817 -18.90234375 220.03515625 C-18.97486822 223.51633099 -19.51499382 225.46187836 -21.46484375 228.34765625 C-24.92946727 230.74624176 -27.72083943 230.7563893 -31.90234375 231.03515625 C-31.90234375 230.37515625 -31.90234375 229.71515625 -31.90234375 229.03515625 C-32.72025391 228.84953125 -32.72025391 228.84953125 -33.5546875 228.66015625 C-42.46647022 226.22274559 -48.49405633 220.8773855 -53.27734375 213.03515625 C-56.79131146 206.11459207 -57.81431627 198.64180448 -58.90234375 191.03515625 C-60.15337891 190.70644531 -60.15337891 190.70644531 -61.4296875 190.37109375 C-74.66491072 186.64158068 -83.2313748 180.54160968 -90.90234375 169.03515625 C-97.33734375 170.02515625 -97.33734375 170.02515625 -103.90234375 171.03515625 C-105.87645018 181.23470616 -107.06801868 190.13539806 -101.58984375 199.41015625 C-96.32878624 206.8759922 -89.8371861 211.95937582 -80.69140625 213.6171875 C-78.6225573 213.88518609 -76.54766028 214.11168786 -74.46875 214.28515625 C-71.90234375 215.03515625 -71.90234375 215.03515625 -70.109375 217.3046875 C-68.96856301 219.88535928 -68.40400198 221.94365349 -68.02734375 224.72265625 C-66.44129868 233.31799725 -62.95451557 240.0684188 -56.08203125 245.56640625 C-50.82282587 249.11024357 -45.25723871 251.49431413 -38.90234375 252.03515625 C-37.72671875 252.13828125 -36.55109375 252.24140625 -35.33984375 252.34765625 C-27.52914399 252.22749164 -18.52943509 249.51522591 -12.39453125 244.5859375 C0.43757907 231.24994851 -1.74708227 214.18796659 -1.90234375 197.03515625 C1.51747903 198.17509718 2.53003722 199.66572993 4.703125 202.4296875 C6.25134888 204.31585116 6.25134888 204.31585116 9.22265625 206.47265625 C14.19697597 210.90628905 15.12494876 215.02518743 15.53515625 221.41015625 C16.07901137 229.33956388 19.37889354 235.74347263 24.09765625 242.03515625 C24.75765625 242.36515625 25.41765625 242.69515625 26.09765625 243.03515625 C26.09765625 243.69515625 26.09765625 244.35515625 26.09765625 245.03515625 C28.9029047 246.45690717 31.73005824 247.80625509 34.59765625 249.09765625 C35.35046875 249.43925781 36.10328125 249.78085937 36.87890625 250.1328125 C45.34729264 253.57682175 54.17000766 252.7555626 62.5234375 249.359375 C69.53825967 245.75083977 74.78295929 240.18866891 78.09765625 233.03515625 C79.44620321 228.58277967 79.44620321 228.58277967 78.21875 224.25390625 C77.84878906 223.66609375 77.47882813 223.07828125 77.09765625 222.47265625 C75.09765625 219.03515625 75.09765625 219.03515625 75.09765625 215.84765625 C76.28456805 212.50946682 77.16387119 211.04248287 80.09765625 209.03515625 C84.47004221 208.38739537 86.38613536 208.53557775 90.03515625 211.09765625 C93.40809839 213.23155842 95.18269954 213.39221375 99.08203125 212.640625 C106.6239462 210.37512729 111.06876305 205.73064029 114.84765625 198.84765625 C116.98024822 193.37603456 118.05816749 186.79140588 116.109375 181.19921875 C115.77550781 180.48507813 115.44164062 179.7709375 115.09765625 179.03515625 C114.52917969 179.26332031 113.96070313 179.49148437 113.375 179.7265625 C108.25313104 181.63336847 104.52492324 182.63141125 99.09765625 181.03515625 C96.66015625 179.41015625 96.66015625 179.41015625 95.09765625 177.03515625 C94.59765625 173.53515625 94.59765625 173.53515625 95.09765625 170.03515625 C97.9729649 166.37384032 100.34249751 165.44383244 104.84765625 164.59765625 C112.43099986 162.85404075 117.64401729 160.3787049 122.41015625 154.09765625 C127.09943095 146.38469622 128.74341882 137.68180249 127.16015625 128.84765625 C126.59900728 124.70848814 126.82273787 123.44118173 129.2109375 119.9140625 C131.66683111 117.10764712 134.38087362 114.58728539 137.09765625 112.03515625 C137.42765625 111.37515625 137.75765625 110.71515625 138.09765625 110.03515625 C138.75765625 110.03515625 139.41765625 110.03515625 140.09765625 110.03515625 C145.23397591 125.37532522 146.996714 141.89497481 140.09765625 157.03515625 C138.08977612 160.570227 135.99086488 164.14194762 133.09765625 167.03515625 C133.19276737 168.56000223 133.35205548 170.08085847 133.53515625 171.59765625 C135.03992039 187.25533712 134.71377311 200.84648824 125.09765625 214.03515625 C124.39640625 215.04578125 123.69515625 216.05640625 122.97265625 217.09765625 C117.28285502 223.64629541 108.50906976 228.19515955 100.09765625 230.03515625 C99.10765625 230.03515625 98.11765625 230.03515625 97.09765625 230.03515625 C96.93910156 230.65261719 96.78054688 231.27007812 96.6171875 231.90625 C92.42951457 247.10680866 84.39897063 256.28372168 70.9921875 264.29296875 C59.82359811 270.31196902 46.37755639 270.83657423 34.28515625 267.41015625 C23.80351348 263.77445728 14.82669327 257.87903347 8.09765625 249.03515625 C8.09765625 248.37515625 8.09765625 247.71515625 8.09765625 247.03515625 C7.10765625 247.03515625 6.11765625 247.03515625 5.09765625 247.03515625 C4.741875 248.1334375 4.741875 248.1334375 4.37890625 249.25390625 C0.12453462 258.48900564 -10.4147987 263.61091476 -19.484375 267 C-32.91559264 271.26731219 -47.03023754 269.7200556 -59.52734375 263.41015625 C-69.07025049 257.8193624 -75.94415607 250.91880429 -80.90234375 241.03515625 C-81.24136719 240.3596875 -81.58039063 239.68421875 -81.9296875 238.98828125 C-83.44655597 235.71687828 -83.90234375 233.71425836 -83.90234375 230.03515625 C-85.16046875 229.82890625 -86.41859375 229.62265625 -87.71484375 229.41015625 C-99.60514307 226.7035732 -108.96843113 219.16699321 -115.71484375 209.16015625 C-122.12265373 197.89660099 -124.40346474 186.05154085 -121.46484375 173.34765625 C-120.73640451 169.42455863 -120.55486904 167.70663985 -122.40625 164.12890625 C-123.8295539 162.26262194 -125.29294647 160.42629298 -126.79296875 158.62109375 C-133.92673966 149.87561904 -135.44463184 136.83184382 -134.765625 125.81738281 C-133.58343387 115.15343737 -130.51820947 105.86623276 -123.08984375 97.97265625 C-119.14627306 93.16404424 -119.50610623 88.57332584 -119.74121094 82.68408203 C-120.34817154 67.04973168 -115.36318539 52.93784402 -105.08984375 41.09765625 C-99.25868084 35.08979143 -93.21264644 30.08060901 -85.21484375 27.41015625 C-79.65983206 25.16472094 -78.08207632 20.42952987 -75.56640625 15.2890625 C-69.48766473 3.40269704 -57.23638605 -4.59506876 -44.90234375 -8.96484375 C-28.99069111 -13.72881161 -12.58955578 -10.67418754 0 0 Z " fill="#001749" transform="translate(163.90234375,38.96484375)"/>
<path d="M0 0 C3.76146709 2.04427559 4.77879397 3.25342966 6 7.375 C6 15.17073246 0.20707612 20.87525425 -4.375 26.75 C-9.60648309 33.5316616 -14.7651282 40.34729475 -19.75 47.3125 C-25.23026502 54.96051429 -30.83447917 62.50535459 -36.50292969 70.01464844 C-39.07158065 73.42108511 -41.62872958 76.83613961 -44.1875 80.25 C-45.19400542 81.59114958 -46.20051572 82.93229551 -47.20703125 84.2734375 C-48.89632964 86.52545449 -50.58096406 88.7806391 -52.26171875 91.0390625 C-56.66095354 96.94265669 -61.15051006 102.76444169 -65.6875 108.5625 C-70.62993749 114.88137184 -75.45171415 121.27491052 -80.1875 127.75 C-85.95955107 135.63747927 -91.87063886 143.38690369 -98 151 C-98.61746094 151.7734375 -99.23492187 152.546875 -99.87109375 153.34375 C-102.36010734 156.37277401 -104.3602976 158.52072587 -108 160 C-113.69179093 160.29440298 -116.37083005 159.07688065 -120.625 155.3125 C-122.43786438 153.55847666 -124.22299847 151.78927283 -126 150 C-127.16683989 148.85561868 -128.33487306 147.71245318 -129.50390625 146.5703125 C-134.99776301 141.17076146 -140.38358377 135.73828516 -145.36328125 129.85546875 C-147.31900088 127.63836416 -149.3955589 125.57624088 -151.5 123.5 C-154.77924869 120.25920146 -157.85297159 116.93561322 -160.84765625 113.43359375 C-162.65622234 111.3886996 -164.49726045 109.39466715 -166.37109375 107.41015625 C-166.98637939 106.75805176 -167.60166504 106.10594727 -168.2355957 105.43408203 C-169.46630613 104.13355872 -170.70035966 102.83618834 -171.93823242 101.54248047 C-183.13663737 89.69523089 -183.13663737 89.69523089 -183 83 C-181.66962182 78.52192967 -179.68821674 75.04792348 -175.75 72.4375 C-172.57172116 70.94936521 -169.72976796 70.46313519 -166.21484375 71.14453125 C-161.20358215 73.0800979 -157.16342346 76.6856958 -153 80 C-150.93914669 81.58547606 -148.87658185 83.16872937 -146.8125 84.75 C-145.72244918 85.59087747 -144.63261147 86.43203127 -143.54296875 87.2734375 C-139.5833019 90.32453138 -135.61074925 93.35805742 -131.625 96.375 C-130.97120361 96.87483398 -130.31740723 97.37466797 -129.64379883 97.88964844 C-122.53707449 103.46546365 -122.53707449 103.46546365 -114.19165039 106.46826172 C-109.71030514 105.81078293 -107.53507133 103.30537658 -104.53515625 100.15625 C-103.93875839 99.55373413 -103.34236053 98.95121826 -102.72789001 98.33044434 C-100.82493674 96.40059425 -98.94404886 94.45070042 -97.0625 92.5 C-95.8014697 91.21743162 -94.53911214 89.93616678 -93.27539062 88.65625 C-87.85444296 83.14302899 -82.52581011 77.58947532 -77.50170898 71.70898438 C-74.81933203 68.65636875 -71.9024073 65.84133782 -69 63 C-63.58400699 57.65631132 -63.58400699 57.65631132 -58.5 52 C-54.6507747 47.44377414 -50.35784126 43.33331873 -46.12207031 39.14160156 C-42.48255972 35.52545862 -39.01836442 31.83988522 -35.703125 27.921875 C-32.76677514 24.60837928 -29.56482456 21.55714568 -26.4140625 18.44921875 C-24.29811319 16.30245465 -22.32225632 14.11097379 -20.375 11.8125 C-14.53378069 4.98618195 -9.42515599 -0.79874203 0 0 Z " fill="#9ACF46" transform="translate(314,99)"/>
<path d="M0 0 C1.9375 1.6875 1.9375 1.6875 3 4 C2.80180748 9.25210169 1.0460097 13.22597737 -1 18 C-2.60102082 24.77354963 -1.15994358 29.52016927 1 36 C3.63034405 37.64110596 6.23568988 38.41735089 9.25 39.0625 C10.03117187 39.23136719 10.81234375 39.40023437 11.6171875 39.57421875 C13.87758208 39.97812532 16.08784854 40.19354702 18.375 40.375 C22 41 22 41 24.0625 42.625 C25.46223006 46.17098281 25.02295782 48.35571278 24 52 C22.0625 54.71875 22.0625 54.71875 19 57 C15.64067958 57.50963095 12.38064016 57.29032575 9 57.0625 C2.21091368 56.46208067 2.21091368 56.46208067 -3.9609375 58.80859375 C-9.51662006 64.77935604 -11.64647227 69.23767467 -13.2265625 77.23046875 C-14.04551478 80.16297968 -14.90068513 81.80984939 -17 84 C-20.97344161 85.10373378 -23.08999772 85.41543583 -26.875 83.6875 C-29 82 -29 82 -30 80 C-30.8703966 69.03300283 -26.95547009 59.44475898 -20 51 C-17.75803596 48.81667888 -15.47377548 46.92954488 -13 45 C-13.3609375 44.25878906 -13.721875 43.51757812 -14.09375 42.75390625 C-18.95494799 31.72168747 -20.1290777 20.35615022 -16.3125 8.75 C-14.50986001 4.54384003 -12.62582794 1.78909841 -9 -1 C-5.15941827 -2.28019391 -3.6601592 -1.60131965 0 0 Z " fill="#00174A" transform="translate(225,79)"/>
<path d="M0 0 C3.78169303 2.65740591 5.02921851 5.55058483 6 10 C6.57867568 16.53801991 6.08294917 22.01331321 3.65625 28.125 C2.83482479 30.14084136 2.83482479 30.14084136 3 33 C4.05266646 34.8428873 5.16662601 36.65107534 6.3125 38.4375 C11.19685088 46.61433842 14.00859478 55.4183496 13 65 C10.86111111 69.56944444 10.86111111 69.56944444 8 71 C0.68555632 71.46440912 0.68555632 71.46440912 -1.9375 69.6875 C-3.96149379 66.47292163 -4.10143852 63.62500828 -4.25 59.9375 C-4.72444408 53.99904166 -6.64768386 47.35231614 -11 43 C-12.45396273 42.92534209 -13.91145727 42.91674092 -15.3671875 42.9375 C-16.25277344 42.94523437 -17.13835937 42.95296875 -18.05078125 42.9609375 C-19.92578275 42.98687113 -21.80078277 43.01291189 -23.67578125 43.0390625 C-25.00802734 43.05066406 -25.00802734 43.05066406 -26.3671875 43.0625 C-27.18300293 43.07410156 -27.99881836 43.08570313 -28.83935547 43.09765625 C-31.8266478 42.96263739 -33.55865553 42.44134447 -35.6875 40.3125 C-37.42521754 37.25080718 -37.49669227 35.4768459 -37 32 C-35.4375 29.33984375 -35.4375 29.33984375 -33 27 C-29.15451351 26.41565792 -25.51420824 26.50038365 -21.62890625 26.53125 C-17.15553756 25.87637579 -15.87165013 24.37718564 -13 21 C-12.34 20.67 -11.68 20.34 -11 20 C-10.91894751 16.10948065 -11.04362393 12.69036615 -11.8125 8.875 C-12 5 -12 5 -10 2 C-6.27833231 -0.48111179 -4.39200889 -0.71869236 0 0 Z " fill="#001749" transform="translate(131,75)"/>
<path d="M0 0 C1.9375 0.6875 1.9375 0.6875 4 2 C5.18444548 4.59097448 5.30289001 6.15725309 4.3359375 8.84765625 C2.88700824 11.71606499 1.86588783 13.61799066 -1.125 14.9375 C-4 15 -4 15 -6.26171875 14.79296875 C-11.54324865 14.44518041 -14.42780577 14.7548448 -18.5625 18.25 C-22.50586051 21.96326502 -22.90688681 24.55674551 -23.25 29.875 C-23.21277518 33.87294609 -22.01792978 36.52916078 -20 40 C-19.67 40.99 -19.34 41.98 -19 43 C-17.16504783 44.11579767 -17.16504783 44.11579767 -15 45 C-14.360625 45.35320312 -13.72125 45.70640625 -13.0625 46.0703125 C-7.3964249 48.96773727 -3.04590994 49.12372742 3.25 48.8828125 C7.32054694 49.05627331 9.04029177 50.28026811 12 53 C14.97113502 58.94227005 12.6113523 66.91426763 11 73 C10.67 73 10.34 73 10 73 C10.01160156 71.73542969 10.02320313 70.47085938 10.03515625 69.16796875 C10.04453566 67.50781398 10.0536357 65.84765761 10.0625 64.1875 C10.07506836 62.93743164 10.07506836 62.93743164 10.08789062 61.66210938 C10.09111328 60.85966797 10.09433594 60.05722656 10.09765625 59.23046875 C10.10289307 58.49207764 10.10812988 57.75368652 10.11352539 56.99291992 C10.07523213 54.78942591 10.07523213 54.78942591 9 52 C7.96101563 52.05800781 6.92203125 52.11601562 5.8515625 52.17578125 C-2.76922128 52.51527183 -9.84885576 52.47859301 -17 47 C-22.15449128 42.22125668 -25.64044275 37.81130684 -26.3125 30.6875 C-25.77454413 24.33962072 -24.3592676 19.85673648 -19.5 15.5625 C-14.4025857 11.45997577 -9.1601863 11.6721528 -2.8359375 11.28125 C-0.10130637 11.31259668 -0.10130637 11.31259668 1 10 C1.13568319 6.33655389 1.16461426 3.49384279 0 0 Z " fill="#07122D" transform="translate(110,163)"/>
<path d="M0 0 C0.99 0.495 0.99 0.495 2 1 C-6.72677267 13.11481382 -15.6712323 25.05604969 -24.875 36.8125 C-29.75589666 43.04743879 -34.51283298 49.35906421 -39.1875 55.75 C-44.95958972 63.63745222 -50.87063742 71.3869019 -57 79 C-57.61746094 79.7734375 -58.23492187 80.546875 -58.87109375 81.34375 C-61.3492749 84.3595914 -63.33318239 86.59858177 -67 88 C-69.75212119 87.96986729 -72.27104753 87.45482541 -75 87 C-75 86.67 -75 86.34 -75 86 C-72.36 86 -69.72 86 -67 86 C-66.67 85.01 -66.34 84.02 -66 83 C-65.195625 82.71125 -64.39125 82.4225 -63.5625 82.125 C-60.80064364 81.2593162 -60.80064364 81.2593162 -60 78.6875 C-59.67 77.800625 -59.34 76.91375 -59 76 C-57.35697047 74.31002677 -55.68528688 72.64783606 -54 71 C-50.29119226 66.53312826 -46.94449506 62.0056416 -44 57 C-43 56 -42 55 -41 54 C-40.09855006 52.85364747 -39.22313116 51.68634297 -38.375 50.5 C-37.94960937 49.9121875 -37.52421875 49.324375 -37.0859375 48.71875 C-35.82563683 46.87589249 -35.82563683 46.87589249 -35 44 C-34.01 43.195625 -33.02 42.39125 -32 41.5625 C-28.91937137 39.34737467 -28.91937137 39.34737467 -28.125 36.6875 C-28.08375 36.130625 -28.0425 35.57375 -28 35 C-27.01 35 -26.02 35 -25 35 C-24.7525 34.46375 -24.505 33.9275 -24.25 33.375 C-21.56770887 28.27864686 -18.21537572 23.9579017 -14.3671875 19.7109375 C-12.92220975 17.90265105 -11.96240097 16.09895068 -11 14 C-10.34 14 -9.68 14 -9 14 C-9 13.01 -9 12.02 -9 11 C-7.68945377 9.64426252 -6.35251497 8.31387169 -5 7 C-3.97695052 5.34738161 -2.97383946 3.68208635 -2 2 C-1.34 1.34 -0.68 0.68 0 0 Z " fill="#91BE2F" transform="translate(273,171)"/>
<path d="M0 0 C3.83246787 0.56002612 6.32810552 1.6066931 9.5 3.8125 C10.2321875 4.31394531 10.964375 4.81539062 11.71875 5.33203125 C16.47140279 8.8070017 20.35771441 12.31120201 23.9375 17 C24.59697632 17.84896851 24.59697632 17.84896851 25.26977539 18.71508789 C28.08195309 22.44823693 30.08436952 26.12250723 31.9375 30.4375 C35.02596488 37.12477438 39.55051344 39.01662972 46 42 C53.57424734 47.2437097 58.99411841 55.33598835 62 64 C62 64.99 62 65.98 62 67 C61.01 67 60.02 67 59 67 C58.85304688 66.45472656 58.70609375 65.90945312 58.5546875 65.34765625 C56.013313 56.8033799 51.70143887 48.90668992 44 44 C43.07574219 43.55011719 42.15148437 43.10023437 41.19921875 42.63671875 C33.20318976 38.62376771 30.17230716 34.57721579 26.6328125 26.5078125 C21.37548459 15.21336164 11.91208131 8.11393481 1.43359375 1.9453125 C0.96050781 1.63335937 0.48742187 1.32140625 0 1 C0 0.67 0 0.34 0 0 Z " fill="#08132C" transform="translate(227,33)"/>
<path d="M0 0 C2.08304538 -0.05418326 4.16649768 -0.09287551 6.25 -0.125 C7.99023438 -0.15980469 7.99023438 -0.15980469 9.765625 -0.1953125 C12.87728105 -0.00741056 14.46984317 0.24746018 17 2 C19 5 19 5 18.9375 8.375 C17.78031204 12.84946009 16.70682268 14.24703487 13 17 C9.640586 17.50921644 6.38068424 17.29032872 3 17.0625 C-3.78908632 16.46208067 -3.78908632 16.46208067 -9.9609375 18.80859375 C-16.17408153 25.48593819 -18.20251551 31.10025971 -20 40 C-21.4407588 37.6905484 -22.04878176 36.44818241 -21.75 33.703125 C-19.07424681 24.95118229 -15.05090156 18.35608845 -6.92578125 13.765625 C-3.99131102 12.59897963 -2.0293298 13.22781789 1 14 C2.87206741 14.13391431 4.74851937 14.21271893 6.625 14.25 C7.54539063 14.27578125 8.46578125 14.3015625 9.4140625 14.328125 C12.48034107 13.93905038 13.82330485 13.17164481 16 11 C16.41702122 7.9157691 16.41702122 7.9157691 16 5 C13.52911687 2.52911687 7.47663657 2.99971749 4.125 2.59765625 C2.578125 2.30181641 2.578125 2.30181641 1 2 C0.67 1.34 0.34 0.68 0 0 Z " fill="#0D1832" transform="translate(231,119)"/>
<path d="M0 0 C1.92238762 3.25372307 2.27119974 5.72872274 2.3347168 9.48583984 C2.36929489 11.14336777 2.36929489 11.14336777 2.40457153 12.8343811 C2.42667191 14.62952652 2.42667191 14.62952652 2.44921875 16.4609375 C2.47136444 17.70773285 2.49351013 18.9545282 2.5163269 20.23910522 C2.57259618 23.59383218 2.61960183 26.94840449 2.6609993 30.30332947 C2.68743548 32.36995601 2.7176121 34.43649479 2.74899292 36.50305176 C3.03760287 55.68767231 3.14506818 74.8376345 2 94 C1.67 94 1.34 94 1 94 C0.11362932 62.66113883 -0.1278411 31.35057097 0 0 Z " fill="#081A30" transform="translate(162,65)"/>
<path d="M0 0 C0.33 0 0.66 0 1 0 C0.979375 1.11375 0.95875 2.2275 0.9375 3.375 C1.71926158 9.78771097 6.66723887 13.60464682 11 18 C12.36687431 19.48842937 13.72248465 20.98734464 15.0625 22.5 C15.63097656 23.1290625 16.19945312 23.758125 16.78515625 24.40625 C18 26 18 26 18 28 C18.639375 28.268125 19.27875 28.53625 19.9375 28.8125 C22 30 22 30 23 33 C24.485 33.495 24.485 33.495 26 34 C26 34.66 26 35.32 26 36 C26.66 36 27.32 36 28 36 C28.33 37.32 28.66 38.64 29 40 C29.66 40 30.32 40 31 40 C31 40.66 31 41.32 31 42 C31.78375 42.226875 32.5675 42.45375 33.375 42.6875 C36.68762108 44.34381054 36.74014357 45.64038286 38 49 C38.61875 49.309375 39.2375 49.61875 39.875 49.9375 C43.00914043 51.50457021 44.11687128 54.08971016 46 57 C47.6292274 58.70328319 49.28641357 60.38161281 51 62 C50.505 62.99 50.505 62.99 50 64 C46.04562553 60.13806545 42.16130067 56.26110078 38.5625 52.0625 C35.99334729 49.07198284 33.30682744 46.26883316 30.5 43.5 C27.22075131 40.25920146 24.14702841 36.93561322 21.15234375 33.43359375 C19.34377766 31.3886996 17.50273955 29.39466715 15.62890625 27.41015625 C15.01362061 26.75805176 14.39833496 26.10594727 13.7644043 25.43408203 C12.53369387 24.13355872 11.29964034 22.83618834 10.06176758 21.54248047 C-0.67339481 10.18531409 -0.67339481 10.18531409 -1 3 C-0.67 2.01 -0.34 1.02 0 0 Z " fill="#93BF30" transform="translate(132,179)"/>
<path d="M0 0 C0.33 0 0.66 0 1 0 C1.09796875 0.75023437 1.1959375 1.50046875 1.296875 2.2734375 C2.99688045 13.90968167 5.89970808 23.07041459 15 31 C20.50546367 34.68754061 25.35483591 36.83064551 32 36 C32.66 35.67 33.32 35.34 34 35 C34.53673893 29.63909407 34.53673893 29.63909407 32.5 25 C32.005 24.67 31.51 24.34 31 24 C33.6331963 24.36319949 34.84431322 24.85505024 36.8125 26.6875 C38.46643119 29.90831337 38.06813912 31.58195481 37 35 C35.25921012 37.57636902 34.01816168 38.76833415 30.95703125 39.46484375 C28.97979281 39.72030996 26.98925803 39.8673828 25 40 C25 39.34 25 38.68 25 38 C24.18208984 37.814375 24.18208984 37.814375 23.34765625 37.625 C15.34421618 35.43602494 9.70893858 31.11168036 5.13671875 24.171875 C1.52738894 17.72848908 -0.14291083 13.14779624 -0.0625 5.75 C-0.04896484 4.13351563 -0.04896484 4.13351563 -0.03515625 2.484375 C-0.02355469 1.66453125 -0.01195313 0.8446875 0 0 Z " fill="#040E28" transform="translate(107,230)"/>
<path d="M0 0 C0 3.44731518 -0.31868075 3.70455893 -2.58984375 6.06640625 C-3.12673828 6.63423828 -3.66363281 7.20207031 -4.21679688 7.78710938 C-4.78462891 8.37298828 -5.35246094 8.95886719 -5.9375 9.5625 C-7.05267815 10.72865772 -8.16604649 11.89654962 -9.27734375 13.06640625 C-9.77484131 13.58146729 -10.27233887 14.09652832 -10.78491211 14.62719727 C-12.110358 16.00577164 -12.110358 16.00577164 -13 18 C-13.66 18 -14.32 18 -15 18 C-15 18.66 -15 19.32 -15 20 C-16.36328125 21.3046875 -16.36328125 21.3046875 -18.3125 22.875 C-22.71086573 26.58882581 -26.50358082 30.70459498 -30.31762695 34.99951172 C-33.80690849 38.90345425 -33.80690849 38.90345425 -36 40 C-36.33 40.99 -36.66 41.98 -37 43 C-37.66 43 -38.32 43 -39 43 C-39 43.66 -39 44.32 -39 45 C-39.66 45 -40.32 45 -41 45 C-41 45.66 -41 46.32 -41 47 C-43.8125 49.6875 -43.8125 49.6875 -47 52 C-47.99 51.67 -48.98 51.34 -50 51 C-48.73724243 49.74509766 -48.73724243 49.74509766 -47.44897461 48.46484375 C-44.29483558 45.32894924 -41.14412559 42.189628 -37.99438477 39.04931641 C-36.63657873 37.69650645 -35.27787249 36.34459934 -33.91821289 34.99365234 C-24.43283495 25.62062395 -24.43283495 25.62062395 -15.50170898 15.7265625 C-12.68769763 12.4912043 -9.61389925 9.50942233 -6.5625 6.5 C-5.92634766 5.86835938 -5.29019531 5.23671875 -4.63476562 4.5859375 C-3.09217194 3.05494226 -1.54642686 1.52712333 0 0 Z " fill="#95BD2A" transform="translate(252,155)"/>
<path d="M0 0 C0.33 0.66 0.66 1.32 1 2 C0.67 2.99 0.34 3.98 0 5 C-1.22611843 19.41432263 -0.44793985 33.41151128 9 45 C9.556875 45.53496094 10.11375 46.06992188 10.6875 46.62109375 C12 48 12 48 12 50 C12.5775 50.2475 13.155 50.495 13.75 50.75 C16.3002997 52.16683317 18.01785701 53.87627537 20 56 C13.41476615 55.26959554 10.16762306 50.77492697 6 46 C-2.22387363 35.45604111 -4.88692719 22.63865457 -3.67578125 9.4765625 C-2.82768621 3.7637943 -2.82768621 3.7637943 -2 1 C-1.34 0.67 -0.68 0.34 0 0 Z " fill="#030F28" transform="translate(45,206)"/>
<path d="M0 0 C0 0.33 0 0.66 0 1 C-0.76183594 1.10957031 -1.52367187 1.21914063 -2.30859375 1.33203125 C-16.05756863 3.44329705 -27.30837566 7.14160822 -35.9375 18.875 C-38.63017452 23.03640608 -40.5420051 27.29659378 -42.17578125 31.96875 C-43.35023967 34.86314989 -44.63157874 35.83450283 -47.4609375 37.10546875 C-48.42257813 37.46253906 -49.38421875 37.81960937 -50.375 38.1875 C-51.33148438 38.55230469 -52.28796875 38.91710937 -53.2734375 39.29296875 C-56.05285296 40.01370542 -57.35108103 39.98549829 -60 39 C-53.67411026 35.12700628 -53.67411026 35.12700628 -49.49609375 34.33984375 C-45.71076887 33.29095585 -45.71076887 33.29095585 -43.8828125 29.62109375 C-43.27845711 28.23444501 -42.69329059 26.83931524 -42.125 25.4375 C-36.87123507 13.81471086 -28.71009842 5.85538014 -16.75 1.1875 C-11.24806644 -0.52763866 -5.7024421 -0.26051766 0 0 Z " fill="#020C25" transform="translate(139,43)"/>
<path d="M0 0 C1.9375 1.6875 1.9375 1.6875 3 4 C2.80180748 9.25210169 1.0460097 13.22597737 -1 18 C-2.60102082 24.77354963 -1.15994358 29.52016927 1 36 C3.00016466 37.20882096 3.00016466 37.20882096 5 38 C5 38.66 5 39.32 5 40 C0.61144323 38.27592413 -1.91486937 35.17026127 -4 31 C-4.65783031 23.48347992 -4.3337881 17.64413535 -0.828125 10.94140625 C0.40176846 8.05811829 -0.05245671 5.91551782 -1 3 C-2.15646125 1.65148641 -2.15646125 1.65148641 -5.25 1.4375 C-8.97429461 1.58483187 -8.97429461 1.58483187 -10.57421875 3.78515625 C-11.82525174 5.81763678 -12.95986583 7.85262623 -14 10 C-14.6015625 8.1953125 -14.6015625 8.1953125 -15 6 C-13.262109 2.65790192 -11.82757508 0.522679 -8.625 -1.5 C-5.11083286 -2.16936517 -3.20839776 -1.5344511 0 0 Z " fill="#040E26" transform="translate(225,79)"/>
<path d="M0 0 C-1.68416016 0.81791016 -1.68416016 0.81791016 -3.40234375 1.65234375 C-12.19841202 6.03711748 -19.75644323 10.18530751 -26 18 C-26.55816406 18.69609375 -27.11632813 19.3921875 -27.69140625 20.109375 C-32.10551534 26.17186067 -34.54188051 32.9628172 -37 40 C-37.33 40 -37.66 40 -38 40 C-37.57283877 26.97158252 -30.20544381 17.7309364 -21 9 C-7.22320755 -2.25138937 -7.22320755 -2.25138937 0 0 Z " fill="#04102A" transform="translate(85,66)"/>
<path d="M0 0 C0.66 0.33 1.32 0.66 2 1 C-0.67504854 6.58271 -3.84891873 9.78127672 -8.55859375 13.74609375 C-12.10175751 17.01714253 -14.94324411 20.75325939 -17.859375 24.58203125 C-21.02824908 28.16147113 -24.78557371 29.90115324 -29 32 C-24.6579546 26.86180144 -20.17364932 21.89729389 -15.5625 17 C-14.93279297 16.32710937 -14.30308594 15.65421875 -13.65429688 14.9609375 C-9.96922254 11.03726123 -6.22175432 7.19873741 -2.36303711 3.4453125 C-0.89238345 2.02502588 -0.89238345 2.02502588 0 0 Z " fill="#96C436" transform="translate(291,113)"/>
<path d="M0 0 C1.77178425 2.65767637 2.64746624 4.66019788 3.6875 7.625 C9.38373679 22.09766089 20.63988291 28.73686605 34 35 C34 35.33 34 35.66 34 36 C23.24723663 35.3136534 15.15301912 28.66394906 8 21 C3.93800091 15.48728695 0.95532771 9.5560988 -1 3 C-0.67 2.01 -0.34 1.02 0 0 Z " fill="#030E29" transform="translate(81,269)"/>
<path d="M0 0 C1 3 1 3 -0.0390625 5.33984375 C-5.77066644 14.72781572 -12.69678657 19.94324071 -23.5546875 22.6328125 C-25.94134338 22.99119214 -28.21268389 23.16677563 -30.625 23.1875 C-31.38039062 23.20167969 -32.13578125 23.21585937 -32.9140625 23.23046875 C-35 23 -35 23 -38 21 C-37.18917969 20.97421875 -36.37835938 20.9484375 -35.54296875 20.921875 C-24.82511438 20.3728813 -15.77043349 18.58188022 -7.79296875 11.015625 C-4.77039 7.61769334 -2.33177989 3.89513232 0 0 Z " fill="#06132C" transform="translate(243,271)"/>
<path d="M0 0 C0.66 0.33 1.32 0.66 2 1 C1.67386719 1.46148437 1.34773438 1.92296875 1.01171875 2.3984375 C0.57472656 3.05070313 0.13773438 3.70296875 -0.3125 4.375 C-0.74175781 5.00148437 -1.17101563 5.62796875 -1.61328125 6.2734375 C-5.76994562 14.44625928 -6.49503829 22.57380066 -6.6875 31.625 C-6.72166016 32.72457031 -6.75582031 33.82414062 -6.79101562 34.95703125 C-6.87260785 37.63791863 -6.942041 40.31851548 -7 43 C-10.60048312 39.39951688 -9.98825401 33.90862922 -10.05419922 29.00830078 C-9.78765171 19.13163481 -7.2173422 7.2173422 0 0 Z " fill="#030E2A" transform="translate(39,139)"/>
<path d="M0 0 C0.33 0 0.66 0 1 0 C2.05495557 7.91216675 -2.02954579 13.67018538 -6.3828125 20.015625 C-11.49034625 26.49489638 -19.31282818 32.07155359 -27 35 C-29.1640625 34.5625 -29.1640625 34.5625 -31 34 C-30.38253906 33.72027344 -29.76507813 33.44054687 -29.12890625 33.15234375 C-16.48513995 27.16724281 -7.20448634 19.11853477 -1.7265625 6.04296875 C-1.01631521 4.04587557 -0.47331747 2.06496346 0 0 Z " fill="#051327" transform="translate(258,270)"/>
<path d="M0 0 C0.99 0 1.98 0 3 0 C4.2890625 1.6875 4.2890625 1.6875 5.625 4 C12.41632748 14.5348397 20.33670655 18.54912512 32 22 C32 22.33 32 22.66 32 23 C24.69728753 23.99582443 19.08912036 20.8198328 13 17 C8.56858579 13.36850561 4.40977949 9.27139264 2 4 C2 3.01 2 2.02 2 1 C1.34 0.67 0.68 0.34 0 0 Z " fill="#030F2C" transform="translate(72,205)"/>
<path d="M0 0 C0.33 0.99 0.66 1.98 1 3 C-5.7346739 11.51000341 -13.40228484 17.99059447 -24 21 C-27.375 21.125 -27.375 21.125 -30 21 C-26.2544157 19.04917485 -22.38527448 17.58408963 -18.4375 16.09765625 C-15.98496401 14.99322898 -14.13476089 13.614873 -12 12 C-11.34 12 -10.68 12 -10 12 C-10 11.34 -10 10.68 -10 10 C-8.57421875 8.6328125 -8.57421875 8.6328125 -6.6875 7.125 C-4.04871976 4.94560255 -1.88866642 2.88854864 0 0 Z " fill="#030F29" transform="translate(168,285)"/>
<path d="M0 0 C0.33 0 0.66 0 1 0 C1.08636719 0.96679688 1.17273437 1.93359375 1.26171875 2.9296875 C2.41818563 13.64557323 4.35097558 22.68159472 13 30 C13.763125 30.556875 14.52625 31.11375 15.3125 31.6875 C15.869375 32.120625 16.42625 32.55375 17 33 C17 33.66 17 34.32 17 35 C9.77947184 32.60152891 5.01490944 26.46701878 1.5 19.875 C-1.03979942 13.62575669 -0.31351334 6.60990635 0 0 Z " fill="#030E26" transform="translate(56,216)"/>
<path d="M0 0 C0.33 0 0.66 0 1 0 C1.02505615 1.14065918 1.0501123 2.28131836 1.07592773 3.45654297 C1.16994293 7.67964341 1.27017787 11.90257709 1.37231445 16.12548828 C1.41568565 17.95487575 1.45735911 19.78430427 1.49731445 21.61376953 C1.55496418 24.24003486 1.61867365 26.8660931 1.68359375 29.4921875 C1.70030624 30.31306854 1.71701874 31.13394958 1.73423767 31.97970581 C1.7431387 36.1233696 1.7431387 36.1233696 3 40 C3.07139635 42.14474644 3.08403003 44.29167354 3.0625 46.4375 C3.05347656 47.59121094 3.04445312 48.74492187 3.03515625 49.93359375 C3.02355469 50.94550781 3.01195312 51.95742187 3 53 C3 53.99 3 54.98 3 56 C0.9375 54.25 0.9375 54.25 -1 52 C-0.62818909 50.16314697 -0.62818909 50.16314697 0 48 C0.08449436 46.38164515 0.11779 44.7602019 0.11352539 43.13964844 C0.11344986 42.17895447 0.11337433 41.2182605 0.11329651 40.22845459 C0.10813522 39.19915833 0.10297394 38.16986206 0.09765625 37.109375 C0.0962413 36.04962463 0.09482635 34.98987427 0.09336853 33.89801025 C0.08777382 30.51531138 0.07522225 27.13267885 0.0625 23.75 C0.05748432 21.45573012 0.05292153 19.16145921 0.04882812 16.8671875 C0.03780611 11.24476906 0.02107321 5.62238927 0 0 Z " fill="#041240" transform="translate(176,127)"/>
<path d="M0 0 C0.33 0 0.66 0 1 0 C1.96895973 5.55602163 2.06029765 10.80552765 1.87890625 16.43359375 C1.85529526 17.31153091 1.83168427 18.18946808 1.80735779 19.0940094 C1.73129025 21.87536122 1.64702406 24.65639363 1.5625 27.4375 C1.50922221 29.33266709 1.45648229 31.22784939 1.40429688 33.12304688 C1.27575297 37.748897 1.13985978 42.37447873 1 47 C0.67 47 0.34 47 0 47 C-0.16754132 40.78881387 -0.32810887 34.57750174 -0.48217773 28.3659668 C-0.53559143 26.25231051 -0.5909203 24.13870172 -0.64819336 22.02514648 C-0.73012166 18.98952478 -0.80519135 15.95379962 -0.87890625 12.91796875 C-0.90594131 11.97100632 -0.93297638 11.02404388 -0.96083069 10.04838562 C-0.98092697 9.16769913 -1.00102325 8.28701263 -1.02172852 7.37963867 C-1.04171402 6.60464523 -1.06169952 5.82965179 -1.08229065 5.03117371 C-1 3 -1 3 0 0 Z " fill="#020C1C" transform="translate(163,112)"/>
<path d="M0 0 C5.18897981 3.34138852 10.16848659 6.86276605 15.0625 10.625 C19.55362316 14.03503333 23.85017422 16.72219244 29 19 C29 19.33 29 19.66 29 20 C19.92127478 20.7823677 11.73924913 12.19094897 5.09375 6.796875 C1.50405954 3.7161705 1.50405954 3.7161705 0 2 C0 1.34 0 0.68 0 0 Z " fill="#93C131" transform="translate(172,188)"/>
<path d="M0 0 C2.36497439 1.86708505 3.66030715 3.32061431 5 6 C5.07116382 8.37402501 5.08409085 10.75000677 5.0625 13.125 C5.05347656 14.40632813 5.04445312 15.68765625 5.03515625 17.0078125 C5.02355469 17.99523437 5.01195312 18.98265625 5 20 C4.67 20 4.34 20 4 20 C3.96261719 19.19175781 3.92523438 18.38351563 3.88671875 17.55078125 C3.82097656 16.48214844 3.75523437 15.41351563 3.6875 14.3125 C3.62949219 13.25675781 3.57148438 12.20101562 3.51171875 11.11328125 C2.96217936 7.76990036 1.91325982 5.76473738 0 3 C-2.64 3.33 -5.28 3.66 -8 4 C-8.66 6.31 -9.32 8.62 -10 11 C-10.66 10.67 -11.32 10.34 -12 10 C-11.51834131 3.61802233 -11.51834131 3.61802233 -9.375 1.0625 C-6.02317947 -0.43699866 -3.63019782 -0.45377473 0 0 Z " fill="#010E26" transform="translate(131,75)"/>
<path d="M0 0 C3.19176614 1.75852084 6.10365596 3.79326168 9 6 C7.1796875 6.62109375 7.1796875 6.62109375 5 7 C4.05125 6.360625 3.1025 5.72125 2.125 5.0625 C-1.341167 2.77482978 -2.93718795 2.35364354 -7 3 C-9.30745935 5.75310083 -9.30745935 5.75310083 -8.6875 8.5 C-8.17901328 10.34904262 -7.60642538 12.18072387 -7 14 C-7.99 14.495 -7.99 14.495 -9 15 C-11.11704665 12.12081656 -12.01143087 10.56011283 -11.9375 6.9375 C-9.89482838 0.53712892 -6.55271279 -1.07421521 0 0 Z " fill="#061029" transform="translate(251,248)"/>
<path d="M0 0 C0.99 0.86625 1.98 1.7325 3 2.625 C4.32942708 3.75461339 5.66294754 4.8794227 7 6 C7.62519531 6.5259375 8.25039062 7.051875 8.89453125 7.59375 C13.23530059 11.05929293 17.48364966 13.24565625 22.703125 15.140625 C24.89346098 15.96013846 26.92931648 16.9171655 29 18 C20.12406046 19.21035539 12.3237801 13.8627063 5.375 8.8125 C2.91715122 6.93022341 1.77074448 5.65611672 0 3 C0 2.01 0 1.02 0 0 Z " fill="#030E27" transform="translate(175,288)"/>
<path d="M0 0 C-1.29506375 2.85530722 -2.68112377 4.84020569 -4.875 7.0625 C-10.77342072 13.79737158 -12.42906994 22.29331664 -13 31 C-13.33 31 -13.66 31 -14 31 C-15.77675065 22.27776956 -13.88085512 15.57266059 -9.0625 8.125 C-3.26714602 0 -3.26714602 0 0 0 Z " fill="#03112F" transform="translate(192,47)"/>
<path d="M0 0 C0.66 0 1.32 0 2 0 C2.66 2.64 3.32 5.28 4 8 C12.54824466 8.15873088 12.54824466 8.15873088 21 7 C18.31549368 10.474067 15.19901505 11.16019699 11 12 C7.10283339 11.86789266 4.81223625 11.54149083 1.5625 9.375 C-0.5520177 6.16093309 -0.28959898 3.76478675 0 0 Z " fill="#0C152B" transform="translate(259,209)"/>
<path d="M0 0 C5.62951037 4.58700845 8.30552908 11.77815181 10.5625 18.5 C11.6478605 22.05228655 11.6478605 22.05228655 14.1875 23.5 C14.785625 23.665 15.38375 23.83 16 24 C12.65747276 24.07427838 10.1964086 24.06546953 7 23 C6.87625 21.2984375 6.87625 21.2984375 6.75 19.5625 C6.23333827 15.33186412 4.81115957 11.9458239 2.98828125 8.12109375 C1.75883135 5.48239298 0.85534582 2.77987391 0 0 Z " fill="#030E29" transform="translate(239,60)"/>
<path d="M0 0 C0.66 0.99 1.32 1.98 2 3 C-2.29059819 11.07124823 -6.23196914 18.21912427 -15 22 C-15.99 21.67 -16.98 21.34 -18 21 C-17.34773437 20.59910156 -16.69546875 20.19820313 -16.0234375 19.78515625 C-7.95967525 14.54014275 -3.40278295 8.97956611 0 0 Z " fill="#05112A" transform="translate(161,268)"/>
<path d="M0 0 C0.33 0 0.66 0 1 0 C1.25593175 5.63049853 1.25593175 5.63049853 -0.25 7.8046875 C-0.4975 8.52914062 -0.745 9.25359375 -1 10 C0.19523052 12.32439302 1.37328827 14.26579971 2.875 16.375 C5.88482017 20.62649516 7.53574612 23.62630402 7 29 C5.28127217 26.42190825 3.96589454 23.96750747 2.625 21.1875 C0.66763282 17.22049174 -1.44016146 13.60273573 -4 10 C-3.71125 9.46375 -3.4225 8.9275 -3.125 8.375 C-1.83288192 5.64719516 -0.91441408 2.87387282 0 0 Z " fill="#010E2B" transform="translate(134,97)"/>
<path d="M0 0 C0.66 0 1.32 0 2 0 C2.268125 0.64066406 2.53625 1.28132813 2.8125 1.94140625 C6.40169711 9.86361435 11.02369505 15.30496341 19 19 C19 19.66 19 20.32 19 21 C12.20171962 19.47038691 7.27644702 15.30770495 3.37890625 9.64453125 C0 3.77691218 0 3.77691218 0 0 Z " fill="#03112C" transform="translate(95,269)"/>
<path d="M0 0 C4.76188416 8.16322998 4.73956153 17.83161219 4 27 C3.34 27.99 2.68 28.98 2 30 C1.6615815 26.3129484 1.33018392 22.62529741 1 18.9375 C0.90460938 17.89916016 0.80921875 16.86082031 0.7109375 15.79101562 C0.24100046 10.50422394 -0.12045745 5.30765619 0 0 Z " fill="#0A122A" transform="translate(304,152)"/>
<path d="M0 0 C6.54724807 0.2786063 11.14124066 2.59812219 16 7 C18.39435846 10.1459076 20.48552391 13.33891867 22 17 C21.67 17.66 21.34 18.32 21 19 C20.5153125 18.26394531 20.030625 17.52789062 19.53125 16.76953125 C14.08690113 8.84381569 9.1356901 4.14039347 0 1 C0 0.67 0 0.34 0 0 Z " fill="#010C2A" transform="translate(140,44)"/>
<path d="M0 0 C1.24176356 3.83363247 0.36552036 5.62026299 -1.1640625 9.296875 C-3.02411734 15.31163176 -3.35608597 21.75782166 -4 28 C-6 26 -6 26 -6.3125 22.125 C-6.13409923 14.2498805 -4.31095687 6.61737917 0 0 Z " fill="#010C27" transform="translate(64,97)"/>
<path d="M0 0 C6.89669811 0.91156358 10.92754027 5.6548482 15.375 10.6875 C18.05222335 14.49739477 19 16.23458821 19 21 C18.34 21 17.68 21 17 21 C16.62488281 20.18015625 16.24976563 19.3603125 15.86328125 18.515625 C15.35152344 17.43796875 14.83976562 16.3603125 14.3125 15.25 C13.81363281 14.18265625 13.31476563 13.1153125 12.80078125 12.015625 C9.68945891 6.80534116 5.39659992 4.51004647 0 2 C0 1.34 0 0.68 0 0 Z " fill="#061128" transform="translate(256,84)"/>
<path d="M0 0 C0.99 0 1.98 0 3 0 C2.835 0.66 2.67 1.32 2.5 2 C1.86326732 5.82039611 1.74572074 9.12224128 2 13 C5.44450737 15.29633824 7.93812283 15.54016485 12 16 C9.41704268 17.68885671 8.07142606 18.00291535 4.9375 17.875 C2 17 2 17 0.125 15.5 C-2.08848713 10.58113972 -1.43625107 5.09637478 0 0 Z " fill="#0E1730" transform="translate(196,146)"/>
<path d="M0 0 C0.66 0.99 1.32 1.98 2 3 C1.67 3.66 1.34 4.32 1 5 C2.11375 4.67 3.2275 4.34 4.375 4 C9.26454223 2.75570789 13.98577615 2.81504912 19 3 C19.33 3.66 19.66 4.32 20 5 C17.27123692 5.33695862 14.54206837 5.66968429 11.8125 6 C10.65911133 6.14308594 10.65911133 6.14308594 9.48242188 6.2890625 C5.63071189 6.75192894 1.88829149 7.12467468 -2 7 C-1.67 6.01 -1.34 5.02 -1 4 C-0.65772583 2.66893378 -0.32248257 1.33599921 0 0 Z " fill="#051A3C" transform="translate(60,119)"/>
<path d="M0 0 C3 2 3 2 3.875 5.25 C4.1184234 12.55270185 -0.69203238 17.50699275 -5 23 C-5.61328125 21.16015625 -5.61328125 21.16015625 -6 19 C-4.1875 16.4375 -4.1875 16.4375 -2 14 C-1.34 13.01 -0.68 12.02 0 11 C0.66 11 1.32 11 2 11 C1.87625 9.700625 1.7525 8.40125 1.625 7.0625 C1.55539062 6.33160156 1.48578125 5.60070312 1.4140625 4.84765625 C1.27742188 4.23792969 1.14078125 3.62820312 1 3 C0.34 2.67 -0.32 2.34 -1 2 C-0.67 1.34 -0.34 0.68 0 0 Z " fill="#94C339" transform="translate(316,101)"/>
<path d="M0 0 C2.33941323 2.17524388 3.98087063 4.39150884 5.625 7.125 C7.11899427 9.71309202 7.11899427 9.71309202 9 12 C11.01964199 12.07244053 13.04167124 12.08377188 15.0625 12.0625 C16.16722656 12.05347656 17.27195312 12.04445312 18.41015625 12.03515625 C19.26480469 12.02355469 20.11945313 12.01195312 21 12 C17.41250675 14.39166216 14.24459921 15.03335638 10 15 C5.37138073 13.38536537 3.41959176 10.03005577 0.91796875 6.03515625 C0 4 0 4 0 0 Z " fill="#010E2A" transform="translate(46,181)"/>
<path d="M0 0 C1.9375 0.6875 1.9375 0.6875 4 2 C5.18444548 4.59097448 5.30289001 6.15725309 4.3359375 8.84765625 C2.84393266 11.80134064 1.82445279 13.63357654 -1.25 15 C-4.9160225 15 -8.37422498 14.55308432 -12 14 C-12 13.67 -12 13.34 -12 13 C-11.14535156 12.86722656 -10.29070312 12.73445312 -9.41015625 12.59765625 C-8.30542969 12.42105469 -7.20070313 12.24445313 -6.0625 12.0625 C-4.96035156 11.88847656 -3.85820313 11.71445313 -2.72265625 11.53515625 C-0.09573071 11.28154864 -0.09573071 11.28154864 1 10 C1.13568319 6.33655389 1.16461426 3.49384279 0 0 Z " fill="#0D1C35" transform="translate(110,163)"/>
<path d="M0 0 C0.66 0 1.32 0 2 0 C2.81837442 1.41328129 3.62946219 2.83078346 4.4375 4.25 C4.88996094 5.03890625 5.34242187 5.8278125 5.80859375 6.640625 C7.80780796 10.59972462 8.12054497 13.8385821 8.0625 18.25 C8.05347656 19.14203125 8.04445312 20.0340625 8.03515625 20.953125 C8.02355469 21.62859375 8.01195312 22.3040625 8 23 C7.34 23 6.68 23 6 23 C5.98582031 22.32195312 5.97164063 21.64390625 5.95703125 20.9453125 C5.62104859 14.38911035 4.28795842 9.7138074 1.05859375 3.99609375 C0 2 0 2 0 0 Z " fill="#051233" transform="translate(121,117)"/>
<path d="M0 0 C0.33 0 0.66 0 1 0 C1 8.25 1 16.5 1 25 C-2.91556393 17.16887215 -2.59093768 9.48500095 -1 1 C-0.67 0.67 -0.34 0.34 0 0 Z " fill="#061027" transform="translate(46,107)"/>
<path d="M0 0 C0.99 0.33 1.98 0.66 3 1 C2.59007812 1.47050781 2.18015625 1.94101562 1.7578125 2.42578125 C0.94957031 3.35970703 0.94957031 3.35970703 0.125 4.3125 C-0.40867188 4.92738281 -0.94234375 5.54226562 -1.4921875 6.17578125 C-3.1640447 8.13498212 -3.1640447 8.13498212 -5 11 C-5.99 11 -6.98 11 -8 11 C-10.25 8.1875 -10.25 8.1875 -12 5 C-11.67 4.01 -11.34 3.02 -11 2 C-10.38125 2.804375 -9.7625 3.60875 -9.125 4.4375 C-7.25835959 7.03874519 -7.25835959 7.03874519 -5 8 C-4.731875 7.4225 -4.46375 6.845 -4.1875 6.25 C-2.98280141 3.9674132 -1.59201885 2.0262058 0 0 Z " fill="#010D27" transform="translate(177,40)"/>
<path d="M0 0 C2 1.5625 2 1.5625 3 3 C2.01 3.33 1.02 3.66 0 4 C0 3.34 0 2.68 0 2 C-5.27315333 2.4452885 -10.01770224 3.08373163 -15 5 C-14 2 -14 2 -11.4375 0.25 C-6.92647273 -1.39037355 -4.66449873 -1.07054069 0 0 Z " fill="#8FBC37" transform="translate(150,171)"/>
<path d="M0 0 C-0.78503906 0.44730469 -1.57007812 0.89460938 -2.37890625 1.35546875 C-8.13169731 4.6659706 -13.68915145 8.01686358 -19 12 C-19 11.01 -19 10.02 -19 9 C-16.734375 7.02734375 -16.734375 7.02734375 -13.75 4.9375 C-12.77546875 4.24527344 -11.8009375 3.55304687 -10.796875 2.83984375 C-4.19972479 -1.49990171 -4.19972479 -1.49990171 0 0 Z " fill="#020D28" transform="translate(116,34)"/>
<path d="M0 0 C0.66 0 1.32 0 2 0 C2.25652344 0.65226563 2.51304688 1.30453125 2.77734375 1.9765625 C5.84571469 8.98112647 9.28702968 12.40219891 16 16 C15.01 16.33 14.02 16.66 13 17 C7.06240174 14.03120087 2.67258227 9.02615905 0 3 C0 2.01 0 1.02 0 0 Z " fill="#050D25" transform="translate(121,237)"/>
<path d="M0 0 C2.22447315 2.22447315 2.75722262 3.75517604 3.8125 6.6875 C5.63214432 11.41857524 7.88381474 15.01820773 11 19 C10.67 19.66 10.34 20.32 10 21 C4.76832908 15.57650114 0.38020863 9.65755567 -0.25 1.9375 C-0.1675 1.298125 -0.085 0.65875 0 0 Z " fill="#040F28" transform="translate(32,183)"/>
<path d="M0 0 C0.33 0 0.66 0 1 0 C1 1.134375 1 2.26875 1 3.4375 C1.67143503 9.39515366 5.90047951 12.96584772 10 17 C9.67 17.99 9.34 18.98 9 20 C7.69979989 18.61211198 6.4101807 17.21430742 5.125 15.8125 C4.40570313 15.03519531 3.68640625 14.25789062 2.9453125 13.45703125 C0.05873741 9.8111362 -1.15206762 7.34326398 -0.625 2.6875 C-0.41875 1.800625 -0.2125 0.91375 0 0 Z " fill="#8ABC34" transform="translate(132,179)"/>
<path d="M0 0 C0.33 0 0.66 0 1 0 C1.57563851 9.78585462 1.57563851 9.78585462 -2 14 C-4 15.375 -4 15.375 -6 16 C-6.99 15.67 -7.98 15.34 -9 15 C-7.515 13.824375 -7.515 13.824375 -6 12.625 C-5.01 11.75875 -4.02 10.8925 -3 10 C-3 9.34 -3 8.68 -3 8 C-2.34 8 -1.68 8 -1 8 C-0.67 5.36 -0.34 2.72 0 0 Z " fill="#020E2B" transform="translate(121,87)"/>
<path d="M0 0 C0.33 0.99 0.66 1.98 1 3 C-0.25977659 4.39238466 -1.52015854 5.78423208 -2.78515625 7.171875 C-4.96177987 10.44730861 -4.90610531 14.15885366 -5 18 C-6.5625 16.3125 -6.5625 16.3125 -8 14 C-7.6619187 9.77398369 -6.0898213 7.41850959 -3.4375 4.1875 C-2.47650391 3.00220703 -2.47650391 3.00220703 -1.49609375 1.79296875 C-1.00238281 1.20128906 -0.50867188 0.60960937 0 0 Z " fill="#020F26" transform="translate(301,197)"/>
<path d="M0 0 C-1.95623005 0.98462134 -3.91407447 1.95942898 -5.89453125 2.89453125 C-10.65684458 5.17384619 -14.77603064 7.83202298 -19 11 C-18.64700771 8.19431993 -18.23064554 7.19618655 -16.0390625 5.33203125 C-15.24242188 4.83058594 -14.44578125 4.32914063 -13.625 3.8125 C-12.83351563 3.30332031 -12.04203125 2.79414063 -11.2265625 2.26953125 C-7.36919964 0.07015769 -4.36551852 -0.09701152 0 0 Z " fill="#020F25" transform="translate(97,162)"/>
<path d="M0 0 C0 4.06031924 -2.05193011 6.11413302 -4.4375 9.1875 C-4.85837891 9.74630859 -5.27925781 10.30511719 -5.71289062 10.88085938 C-6.77857562 12.27733299 -7.88601749 13.64174155 -9 15 C-9.33 15 -9.66 15 -10 15 C-10.3125 12.8125 -10.3125 12.8125 -10 10 C-7.8125 7.5 -7.8125 7.5 -5 5 C-4.071875 4.071875 -3.14375 3.14375 -2.1875 2.1875 C-1.1046875 1.1046875 -1.1046875 1.1046875 0 0 Z " fill="#94C236" transform="translate(308,125)"/>
<path d="M0 0 C0.66 0.33 1.32 0.66 2 1 C1.113125 1.969375 0.22625 2.93875 -0.6875 3.9375 C-4.14494929 7.94518469 -6.59426112 12.30561573 -9 17 C-9.703125 15.3515625 -9.703125 15.3515625 -10 13 C-8.671875 10.2734375 -8.671875 10.2734375 -6.75 7.375 C-6.12609375 6.41335937 -5.5021875 5.45171875 -4.859375 4.4609375 C-3 2 -3 2 0 0 Z " fill="#040D24" transform="translate(208,128)"/>
<path d="M0 0 C0.99 0.33 1.98 0.66 3 1 C2.52949219 1.65226562 2.05898437 2.30453125 1.57421875 2.9765625 C-1.66443932 7.52275333 -4.71777926 11.8985654 -7 17 C-7.67578125 15.31640625 -7.67578125 15.31640625 -8 13 C-6.85546875 10.52734375 -6.85546875 10.52734375 -5.1875 7.9375 C-4.64480469 7.08027344 -4.10210937 6.22304688 -3.54296875 5.33984375 C-2.3670163 3.55656396 -1.1848987 1.77734804 0 0 Z " fill="#040E27" transform="translate(93,47)"/>
<path d="M0 0 C-2.62399933 1.74933288 -5.19474533 3.19732575 -8 4.625 C-8.86625 5.07101563 -9.7325 5.51703125 -10.625 5.9765625 C-13 7 -13 7 -16 7 C-10.55226178 1.24960965 -7.9911838 -0.30735322 0 0 Z " fill="#010F2B" transform="translate(197,31)"/>
<path d="M0 0 C0.66 0 1.32 0 2 0 C7.37129841 9.41002278 7.37129841 9.41002278 9 14 C3.6614783 11.03415461 1.90478931 8.82018954 0 3 C0 2.01 0 1.02 0 0 Z " fill="#091329" transform="translate(179,269)"/>
<path d="M0 0 C-4.23998294 4.03315451 -6.90005721 5.88490674 -13 6 C-13.99 5.34 -14.98 4.68 -16 4 C-13.36 4 -10.72 4 -8 4 C-7.67 3.01 -7.34 2.02 -7 1 C-2.55696203 -1.27848101 -2.55696203 -1.27848101 0 0 Z " fill="#86B937" transform="translate(214,253)"/>
<path d="M0 0 C3.19199167 2.41556126 5.74716687 4.68003538 8 8 C6.02 8.99 4.04 9.98 2 11 C2 9.02 2 7.04 2 5 C1.34 5 0.68 5 0 5 C0 3.35 0 1.7 0 0 Z " fill="#09173C" transform="translate(164,237)"/>
<path d="M0 0 C6.31712288 0.97186506 10.77900224 5.53070826 15 10 C14.67 10.66 14.34 11.32 14 12 C13.49210938 11.54109375 12.98421875 11.0821875 12.4609375 10.609375 C9.25361948 7.75041736 6.11514846 4.96014375 2.5 2.625 C1.675 2.08875 0.85 1.5525 0 1 C0 0.67 0 0.34 0 0 Z " fill="#020B22" transform="translate(223,47)"/>
<path d="M0 0 C2.46221297 3.69331946 2.11938241 5.21253608 1.75 9.5625 C1.66234375 10.71878906 1.5746875 11.87507812 1.484375 13.06640625 C1 16 1 16 -1 18 C-1.02707139 15.75006641 -1.04642829 13.50003905 -1.0625 11.25 C-1.07410156 9.99703125 -1.08570313 8.7440625 -1.09765625 7.453125 C-1.02021027 4.71463499 -0.82780815 2.58119707 0 0 Z " fill="#030B23" transform="translate(282,218)"/>
<path d="M0 0 C0.66 0 1.32 0 2 0 C1.649375 0.721875 1.29875 1.44375 0.9375 2.1875 C-0.44033573 6.32100718 0.65739827 8.9721948 2 13 C1.01 13.495 1.01 13.495 0 14 C-2.16918074 11.04991419 -3.03546286 9.59104769 -2.8125 5.875 C-2 3 -2 3 0 0 Z " fill="#182137" transform="translate(242,249)"/>
<path d="M0 0 C2 2 2 2 2.3125 5.8125 C2.23655163 9.60301431 1.30623182 11.92502424 -1 15 C-2.32 14.67 -3.64 14.34 -5 14 C-4.35546875 13.62230469 -3.7109375 13.24460938 -3.046875 12.85546875 C-0.75970238 11.13940092 -0.75970238 11.13940092 -0.390625 8.30078125 C-0.34421875 7.31464844 -0.2978125 6.32851562 -0.25 5.3125 C-0.19328125 4.31863281 -0.1365625 3.32476562 -0.078125 2.30078125 C-0.05234375 1.54152344 -0.0265625 0.78226563 0 0 Z " fill="#0A142C" transform="translate(142,130)"/>
<path d="M0 0 C1.74897661 2.62346492 2.6148939 4.49545594 3.5625 7.4375 C3.93568359 8.58025391 3.93568359 8.58025391 4.31640625 9.74609375 C4.94516216 11.8191918 5.49616083 13.89347243 6 16 C2.911493 13.2203437 1.12324929 11.02497664 0 7 C-0.07646165 4.6679198 -0.09143299 2.33154122 0 0 Z " fill="#020B26" transform="translate(208,107)"/>
<path d="M0 0 C0.33 0 0.66 0 1 0 C1.48828125 1.98567708 1.9765625 3.97135417 2.46484375 5.95703125 C2.91010705 7.65683202 3.44433985 9.33301954 4 11 C6.00016466 12.20882096 6.00016466 12.20882096 8 13 C8 13.66 8 14.32 8 15 C4.19510255 13.50521886 2.33809165 11.30557786 0 8 C-1.09658936 4.71023192 -0.79953138 3.28696233 0 0 Z " fill="#031433" transform="translate(222,104)"/>
<path d="M0 0 C0 2 0 2 -1.609375 3.65625 C-2.31578125 4.2646875 -3.0221875 4.873125 -3.75 5.5 C-4.44609375 6.1084375 -5.1421875 6.716875 -5.859375 7.34375 C-7.84460792 8.87976963 -9.71872045 9.9723966 -12 11 C-5.34883721 0 -5.34883721 0 0 0 Z " fill="#020F28" transform="translate(78,84)"/>
<path d="M0 0 C0.66 0 1.32 0 2 0 C2 0.66 2 1.32 2 2 C-0.30078125 3.76171875 -0.30078125 3.76171875 -3.3125 5.6875 C-4.29863281 6.33074219 -5.28476562 6.97398437 -6.30078125 7.63671875 C-7.19152344 8.08660156 -8.08226562 8.53648437 -9 9 C-9.99 8.67 -10.98 8.34 -12 8 C-11.21753906 7.50628906 -10.43507813 7.01257813 -9.62890625 6.50390625 C-8.61699219 5.86324219 -7.60507812 5.22257812 -6.5625 4.5625 C-5.55316406 3.92441406 -4.54382813 3.28632813 -3.50390625 2.62890625 C-1.15446165 1.22350458 -1.15446165 1.22350458 0 0 Z " fill="#071024" transform="translate(282,257)"/>
<path d="M0 0 C1.5078125 1.28515625 1.5078125 1.28515625 3 3 C2.83266624 7.60167853 2.14032517 10.58660308 -1 14 C-1.99 13.67 -2.98 13.34 -4 13 C-3.34 12.525625 -2.68 12.05125 -2 11.5625 C0.89658976 7.85124437 0.34969446 4.54602793 0 0 Z " fill="#172034" transform="translate(247,121)"/>
<path d="M0 0 C0.33 0.66 0.66 1.32 1 2 C-0.35541324 6.06623972 -2.57009469 7.53046818 -6 10 C-6.99 9.67 -7.98 9.34 -9 9 C-6.03 6.03 -3.06 3.06 0 0 Z " fill="#91C132" transform="translate(211,197)"/>
<path d="M0 0 C5.65611463 -0.56561146 9.22642128 1.28608722 14 4 C13.67 4.99 13.34 5.98 13 7 C11.39459341 6.21085079 9.79071984 5.41858235 8.1875 4.625 C7.29417969 4.18414062 6.40085937 3.74328125 5.48046875 3.2890625 C3 2 3 2 0 0 Z " fill="#010A25" transform="translate(81,124)"/>
<path d="M0 0 C0.33 0.99 0.66 1.98 1 3 C3.31 2.01 5.62 1.02 8 0 C8 0.66 8 1.32 8 2 C7.38125 2.0825 6.7625 2.165 6.125 2.25 C3.81562433 2.81258459 3.81562433 2.81258459 2.75 5.0625 C2.5025 5.701875 2.255 6.34125 2 7 C1.34 7 0.68 7 0 7 C-0.38133299 5.0085944 -0.71325582 3.00720923 -1 1 C-0.67 0.67 -0.34 0.34 0 0 Z " fill="#242F39" transform="translate(276,108)"/>
<path d="M0 0 C3.63 1.98 7.26 3.96 11 6 C11 6.99 11 7.98 11 9 C9.34793553 8.07352464 7.7035003 7.13343426 6.0625 6.1875 C5.14597656 5.66542969 4.22945312 5.14335937 3.28515625 4.60546875 C1 3 1 3 0 0 Z " fill="#050E25" transform="translate(189,283)"/>
<path d="M0 0 C0 0.99 0 1.98 0 3 C-1.40751221 3.86916887 -2.8264521 4.71985149 -4.25 5.5625 C-5.03890625 6.03816406 -5.8278125 6.51382812 -6.640625 7.00390625 C-9.30844625 8.13022151 -10.34501768 8.0169313 -13 7 C-12.31292969 6.66226562 -11.62585938 6.32453125 -10.91796875 5.9765625 C-10.01691406 5.53054688 -9.11585938 5.08453125 -8.1875 4.625 C-7.29417969 4.18414062 -6.40085938 3.74328125 -5.48046875 3.2890625 C-2.85443619 1.98133095 -2.85443619 1.98133095 0 0 Z " fill="#040B1F" transform="translate(240,297)"/>
<path d="M0 0 C0.33 0 0.66 0 1 0 C1.16834933 1.77067416 1.33461909 3.54154612 1.5 5.3125 C1.5928125 6.29863281 1.685625 7.28476563 1.78125 8.30078125 C2 11 2 11 2 14 C-0.125 12.625 -0.125 12.625 -2 10 C-1.75143398 6.55249736 -0.93770846 3.31999482 0 0 Z " fill="#192E30" transform="translate(177,169)"/>
<path d="M0 0 C-2.66315194 2.66315194 -4.65344068 2.94426493 -8.359375 3.09765625 C-9.14828125 3.08605469 -9.9371875 3.07445312 -10.75 3.0625 C-11.54921875 3.05347656 -12.3484375 3.04445313 -13.171875 3.03515625 C-13.77515625 3.02355469 -14.3784375 3.01195312 -15 3 C-15 2.67 -15 2.34 -15 2 C-9.77487721 0.53329887 -5.4185766 -0.22577402 0 0 Z " fill="#030A2A" transform="translate(140,291)"/>
<path d="M0 0 C0.33 0.99 0.66 1.98 1 3 C0.33333333 4.33333333 -0.33333333 5.66666667 -1 7 C-1.38749213 9.32495277 -1.72982839 11.65851268 -2 14 C-2.33 14 -2.66 14 -3 14 C-4.61050328 5.96498906 -4.61050328 5.96498906 -2.0625 1.9375 C-1.381875 1.298125 -0.70125 0.65875 0 0 Z " fill="#25363B" transform="translate(295,157)"/>
<path d="M0 0 C4.87362847 0.45336079 7.39042389 1.7089159 11 5 C10.67 5.66 10.34 6.32 10 7 C8.33073546 6.02526874 6.66464358 5.04510211 5 4.0625 C4.071875 3.51722656 3.14375 2.97195312 2.1875 2.41015625 C1.465625 1.94480469 0.74375 1.47945312 0 1 C0 0.67 0 0.34 0 0 Z " fill="#020C29" transform="translate(150,32)"/>
<path d="M0 0 C0.66 0 1.32 0 2 0 C0.72278474 4.99275057 -1.17330957 7.57611908 -5 11 C-4.32902328 6.80639551 -2.1441606 3.59665648 0 0 Z " fill="#061126" transform="translate(279,237)"/>
<path d="M0 0 C1.90845703 0.04060547 1.90845703 0.04060547 3.85546875 0.08203125 C5.31919922 0.13423828 5.31919922 0.13423828 6.8125 0.1875 C6.8125 0.5175 6.8125 0.8475 6.8125 1.1875 C2.5225 1.1875 -1.7675 1.1875 -6.1875 1.1875 C-6.5175 2.1775 -6.8475 3.1675 -7.1875 4.1875 C-8.1775 3.8575 -9.1675 3.5275 -10.1875 3.1875 C-7.45798749 -0.67846382 -4.44588996 -0.12236394 0 0 Z " fill="#082244" transform="translate(105.1875,101.8125)"/>
<path d="M0 0 C3.25597758 0.24118352 4.7276304 1.52224212 6.8125 3.875 C7.534375 4.90625 8.25625 5.9375 9 7 C8.67 7.99 8.34 8.98 8 10 C6.66370254 8.52351062 5.33103329 7.0437367 4 5.5625 C3.2575 4.73878906 2.515 3.91507813 1.75 3.06640625 C0 1 0 1 0 0 Z " fill="#020D22" transform="translate(242,43)"/>
<path d="M0 0 C-0.71027344 0.19335938 -1.42054687 0.38671875 -2.15234375 0.5859375 C-3.53099609 0.97652344 -3.53099609 0.97652344 -4.9375 1.375 C-5.85402344 1.63023437 -6.77054688 1.88546875 -7.71484375 2.1484375 C-10.16745087 2.76660104 -10.16745087 2.76660104 -11 5 C-10.875 3.125 -10.875 3.125 -10 1 C-6.21338575 -0.76708665 -3.95134476 -1.1914033 0 0 Z " fill="#020D2D" transform="translate(70,207)"/>
<path d="M0 0 C4.1424367 1.38081223 5.32203099 3.59825558 8 7 C5 7 5 7 2.3125 4.625 C0 2 0 2 0 0 Z " fill="#162C3C" transform="translate(163,167)"/>
<path d="M0 0 C0.66 0 1.32 0 2 0 C0.8141763 3.37503669 -0.27573689 5.64722731 -3 8 C-3.99 7.67 -4.98 7.34 -6 7 C-5.04882866 5.8274869 -4.08882991 4.66212985 -3.125 3.5 C-2.59132813 2.8503125 -2.05765625 2.200625 -1.5078125 1.53125 C-0.76144531 0.77328125 -0.76144531 0.77328125 0 0 Z " fill="#1C2A36" transform="translate(302,149)"/>
<path d="M0 0 C0 3.54404336 -0.60989485 4.10267905 -2.875 6.6875 C-3.40867187 7.31011719 -3.94234375 7.93273437 -4.4921875 8.57421875 C-6 10 -6 10 -8 10 C-6.34908222 5.70761377 -3.26245434 3.1206085 0 0 Z " fill="#8EB73E" transform="translate(261,145)"/>
<path d="M0 0 C1.875 0.625 1.875 0.625 4 2 C5.25 5.125 5.25 5.125 6 8 C5.01 8.495 5.01 8.495 4 9 C0 2.25 0 2.25 0 0 Z " fill="#010E31" transform="translate(96,131)"/>
<path d="M0 0 C1.31611677 0.95336021 2.62778961 1.91285774 3.9375 2.875 C4.66839844 3.40867188 5.39929688 3.94234375 6.15234375 4.4921875 C8 6 8 6 9 8 C8.1646875 7.566875 8.1646875 7.566875 7.3125 7.125 C4.91505355 5.9586747 2.48403061 4.9660119 0 4 C0 2.68 0 1.36 0 0 Z " fill="#8DBC37" transform="translate(158,177)"/>
<path d="M0 0 C3.5 0.25 3.5 0.25 5.5 2.25 C1.48195309 3.09098656 -1.51803543 3.30404945 -5.5 2.25 C-3.5 0.25 -3.5 0.25 0 0 Z " fill="#8EB742" transform="translate(310.5,98.75)"/>
<path d="M0 0 C0.66 0 1.32 0 2 0 C1.34 3.3 0.68 6.6 0 10 C-0.66 9.67 -1.32 9.34 -2 9 C-1.125 1.125 -1.125 1.125 0 0 Z " fill="#00092C" transform="translate(72,182)"/>
<path d="M0 0 C1.9375 0.6875 1.9375 0.6875 4 2 C4.75 4.625 4.75 4.625 5 7 C4.01 7 3.02 7 2 7 C1.34 4.69 0.68 2.38 0 0 Z " fill="#070F27" transform="translate(110,163)"/>
<path d="M0 0 C1.10844919 3.32534757 0.84454356 5.62182575 0 9 C-0.66 8.67 -1.32 8.34 -2 8 C-1.125 1.125 -1.125 1.125 0 0 Z " fill="#071733" transform="translate(121,77)"/>
<path d="M0 0 C3.125 0.75 3.125 0.75 6 2 C6.33 2.66 6.66 3.32 7 4 C3.7 3.34 0.4 2.68 -3 2 C-2.01 1.34 -1.02 0.68 0 0 Z " fill="#021235" transform="translate(219,77)"/>
<path d="M0 0 C3 1 3 1 3 1 Z " fill="#000055" transform="translate(211,46)"/>
<path d="M0 0 C2 1 2 1 2 1 Z " fill="#000000" transform="translate(127,268)"/>
<path d="" fill="#000040" transform="translate(0,0)"/>
<path d="M0 0 C2 1 2 1 2 1 Z " fill="#000040" transform="translate(31,191)"/>
<path d="M0 0 C2 1 2 1 2 1 Z " fill="#000000" transform="translate(91,159)"/>
<path d="M0 0 C2 1 2 1 2 1 Z " fill="#000000" transform="translate(60,142)"/>
<path d="" fill="#000000" transform="translate(0,0)"/>
<path d="" fill="#000000" transform="translate(0,0)"/>
<path d="M0 0 C2 1 2 1 2 1 Z " fill="#002080" transform="translate(202,46)"/>
<path d="" fill="#000080" transform="translate(0,0)"/>
<path d="" fill="#000000" transform="translate(0,0)"/>
<path d="" fill="#000000" transform="translate(0,0)"/>
<path d="" fill="#000000" transform="translate(0,0)"/>
<path d="" fill="#000000" transform="translate(0,0)"/>
<path d="" fill="#008080" transform="translate(0,0)"/>
<path d="" fill="#000000" transform="translate(0,0)"/>
<path d="" fill="#008080" transform="translate(0,0)"/>
<path d="" fill="#005555" transform="translate(0,0)"/>
<path d="" fill="#000000" transform="translate(0,0)"/>
<path d="" fill="#000000" transform="translate(0,0)"/>
<path d="" fill="#000000" transform="translate(0,0)"/>
<path d="" fill="#000000" transform="translate(0,0)"/>
<path d="" fill="#808080" transform="translate(0,0)"/>
<path d="" fill="#000000" transform="translate(0,0)"/>
<path d="" fill="#000000" transform="translate(0,0)"/>
<path d="" fill="#008080" transform="translate(0,0)"/>
<path d="" fill="#000000" transform="translate(0,0)"/>
<path d="" fill="#00FF00" transform="translate(0,0)"/>
<path d="" fill="#000080" transform="translate(0,0)"/>
<path d="" fill="#000000" transform="translate(0,0)"/>
<path d="" fill="#00FF00" transform="translate(0,0)"/>
<path d="" fill="#000000" transform="translate(0,0)"/>
<path d="" fill="#000000" transform="translate(0,0)"/>
<path d="" fill="#000000" transform="translate(0,0)"/>
<path d="" fill="#005555" transform="translate(0,0)"/>
<path d="" fill="#FFFF00" transform="translate(0,0)"/>
<path d="" fill="#808080" transform="translate(0,0)"/>
<path d="" fill="#00FF00" transform="translate(0,0)"/>
<path d="" fill="#FFFF00" transform="translate(0,0)"/>
<path d="" fill="#00FF00" transform="translate(0,0)"/>
<path d="" fill="#000000" transform="translate(0,0)"/>
<path d="" fill="#666666" transform="translate(0,0)"/>
<path d="" fill="#FFFF00" transform="translate(0,0)"/>
<path d="" fill="#000000" transform="translate(0,0)"/>
<path d="" fill="#000000" transform="translate(0,0)"/>
<path d="" fill="#404040" transform="translate(0,0)"/>
<path d="" fill="#000000" transform="translate(0,0)"/>
<path d="" fill="#000000" transform="translate(0,0)"/>
<path d="" fill="#000000" transform="translate(0,0)"/>
<path d="" fill="#FFFF00" transform="translate(0,0)"/>
<path d="" fill="#004040" transform="translate(0,0)"/>
<path d="" fill="#00FF00" transform="translate(0,0)"/>
<path d="" fill="#008080" transform="translate(0,0)"/>
<path d="" fill="#000000" transform="translate(0,0)"/>
<path d="" fill="#FFFF00" transform="translate(0,0)"/>
<path d="" fill="#000080" transform="translate(0,0)"/>
<path d="" fill="#808080" transform="translate(0,0)"/>
<path d="" fill="#808080" transform="translate(0,0)"/>
<path d="" fill="#000000" transform="translate(0,0)"/>
<path d="" fill="#FFFF00" transform="translate(0,0)"/>
<path d="" fill="#000000" transform="translate(0,0)"/>
<path d="" fill="#000000" transform="translate(0,0)"/>
<path d="" fill="#000000" transform="translate(0,0)"/>
<path d="" fill="#000080" transform="translate(0,0)"/>
<path d="" fill="#005555" transform="translate(0,0)"/>
<path d="" fill="#008080" transform="translate(0,0)"/>
<path d="" fill="#005555" transform="translate(0,0)"/>
<path d="" fill="#000000" transform="translate(0,0)"/>
<path d="" fill="#00FF00" transform="translate(0,0)"/>
<path d="" fill="#000000" transform="translate(0,0)"/>
<path d="" fill="#000000" transform="translate(0,0)"/>
<path d="" fill="#004080" transform="translate(0,0)"/>
<path d="" fill="#000080" transform="translate(0,0)"/>
<path d="" fill="#000000" transform="translate(0,0)"/>
<path d="" fill="#000080" transform="translate(0,0)"/>
<path d="" fill="#000000" transform="translate(0,0)"/>
<path d="" fill="#000080" transform="translate(0,0)"/>
<path d="" fill="#000000" transform="translate(0,0)"/>
<path d="" fill="#000000" transform="translate(0,0)"/>
<path d="" fill="#000000" transform="translate(0,0)"/>
<path d="" fill="#000080" transform="translate(0,0)"/>
<path d="" fill="#000000" transform="translate(0,0)"/>
<path d="" fill="#000000" transform="translate(0,0)"/>
<path d="" fill="#000000" transform="translate(0,0)"/>
<path d="" fill="#000000" transform="translate(0,0)"/>
</svg>
