<svg xmlns="http://www.w3.org/2000/svg" width="334" height="334"><path fill="#001749" d="M163.902 38.965c2.575 2.498 4.293 4.95 6.098 8.035l2 1 .844-1.79c4.275-8.175 11.573-13.024 20.02-16.331C207.021 25.912 221.111 28.387 234 35c11.112 6.56 19.25 15.611 24.438 27.375C261.83 69.683 265.852 71.844 273 75c7.946 5.501 15.121 15.352 17 25-.793 2.09-.793 2.09-2 4l-1.875 3.188c-2.287 3.027-2.68 3.123-6.125 3.812-1.284 1.984-1.284 1.984-2 4h-2l-.883-2.965c-4.191-13.974-4.191-13.974-14.367-23.91-4.721-2.324-9.664-3.819-14.75-5.125l-.25-3.437c-.645-5.017-2.397-9.115-4.75-13.563-.4-.755-.8-1.51-1.21-2.29C235.837 57.065 230.528 53.02 224 49l-1.89-1.164c-7.268-3.503-18.04-3.032-25.743-1.215-7.224 3.187-11.946 9.636-14.742 16.816-2.816 8.02-2.771 16.494-2.739 24.9v3.005q.002 4.872.016 9.744l.005 6.8q.006 8.92.024 17.84.014 9.096.02 18.192.015 17.072.046 34.145.004 2.469.003 4.937l-3-2v-2l-1.562-.687c-4.566-2.459-8.541-4.968-11.438-9.313-1.246-6.47-1.128-13.182-1.062-19.746l.026-5.665.019-2.978c.094-16.545.065-33.09-.245-49.633a998 998 0 0 1-.084-5.528c.048-18.125.048-18.125-8.654-33.45-8.294-6.36-15.704-6.592-26-6-9.69 1.495-18.241 8.13-23.937 15.875-2.693 4.161-4.605 8.422-6.239 13.094C96 77 96 77 94 79a109 109 0 0 1-5.062 1.75c-10.6 3.769-18.793 10.173-24.25 20.125-3.201 7.023-4.1 13.595-2.688 21.125l-1 2 3.375-1c10.247-2.508 19.91-.961 29 4.375 3.83 2.577 6.533 5.368 8.563 9.563.1 3.293-1.21 5.321-2.938 8.062-2.502 1.984-3.732 2.011-6.937 1.875-3.476-.993-5.35-2.539-8.063-4.875h-2v-2c-8.879-1.177-16.125-1.74-24 3-5.875 4.853-10.368 11.29-11.222 19.01a123 123 0 0 0-.153 6.74l.005 2.413c.13 6.28 1.182 11.35 4.37 16.837l1.688 3.188c2.72 2.131 3.416 2.036 6.75 1.75 3.414-.529 6.527-1.263 9.562-2.938 1.258-2.537 1.258-2.537 1.938-5.562 2.613-8.66 6.368-15.31 14.207-20.153 5.987-2.695 12.451-3.95 18.855-5.285v2l3.313.313C111 162 111 162 112.875 163.25c1.562 2.429 2.059 3.828 2.125 6.75-.952 2.66-2.18 4.837-4 7-2.573 1.135-4.49 1.047-7.262.793-5.281-.348-8.166-.038-12.3 3.457-3.944 3.713-4.345 6.307-4.688 11.625.037 3.998 1.232 6.654 3.25 10.125l1 3c1.835 1.116 1.835 1.116 4 2l1.938 1.07c5.666 2.898 10.016 3.054 16.312 2.813 4.07.173 5.79 1.397 8.75 4.117 1.159 2.318 1.053 3.438.922 6-.762 13.37-.762 13.37 5.078 25 3.46 2.906 7.249 4.646 11.313 6.563 2.897 1.55 4.252 2.482 5.687 5.437-.073 3.481-.613 5.427-2.562 8.313-3.465 2.398-6.256 2.408-10.438 2.687v-2l-1.652-.375c-8.912-2.437-14.94-7.783-19.723-15.625-3.514-6.92-4.537-14.393-5.625-22l-2.527-.664C89.237 225.606 80.67 219.506 73 208l-13 2c-1.974 10.2-3.166 19.1 2.313 28.375 5.26 7.466 11.752 12.55 20.898 14.207 2.069.268 4.144.495 6.223.668C92 254 92 254 93.793 256.27c1.14 2.58 1.705 4.638 2.082 7.418 1.586 8.595 5.073 15.345 11.945 20.843 5.26 3.544 10.825 5.928 17.18 6.469l3.563.313c7.81-.12 16.81-2.833 22.945-7.762C164.34 270.215 162.155 253.153 162 236c3.42 1.14 4.432 2.63 6.605 5.395 1.549 1.886 1.549 1.886 4.52 4.042 4.974 4.434 5.902 8.553 6.313 14.938.543 7.93 3.843 14.333 8.562 20.625l2 1v2a205 205 0 0 0 8.5 4.063l2.281 1.035c8.469 3.444 17.291 2.622 25.645-.774 7.015-3.608 12.26-9.17 15.574-16.324 1.349-4.452 1.349-4.452.121-8.781L241 261.438c-2-3.438-2-3.438-2-6.625 1.187-3.339 2.066-4.806 5-6.813 4.372-.648 6.288-.5 9.938 2.063 3.372 2.133 5.147 2.294 9.046 1.542 7.542-2.265 11.987-6.91 15.766-13.792 2.133-5.472 3.21-12.057 1.262-17.649L279 218l-1.723.691c-5.122 1.907-8.85 2.905-14.277 1.309-2.437-1.625-2.437-1.625-4-4-.5-3.5-.5-3.5 0-7 2.875-3.661 5.245-4.591 9.75-5.437 7.583-1.744 12.796-4.22 17.563-10.5 4.689-7.713 6.333-16.416 4.75-25.25-.562-4.14-.338-5.407 2.05-8.934 2.456-2.807 5.17-5.327 7.887-7.879l1-2h2c5.136 15.34 6.9 31.86 0 47-2.008 3.535-4.107 7.107-7 10a79 79 0 0 0 .438 4.563C298.942 226.22 298.616 239.81 289 253l-2.125 3.063C281.185 262.61 272.411 267.16 264 269h-3l-.48 1.871c-4.188 15.2-12.219 24.378-25.625 32.387-11.17 6.019-24.615 6.543-36.708 3.117C187.707 302.739 178.73 296.844 172 288v-2h-3l-.719 2.219c-4.254 9.235-14.793 14.357-23.863 17.746-13.431 4.267-27.546 2.72-40.043-3.59C94.832 296.785 87.958 289.884 83 280l-1.027-2.047C80.456 274.682 80 272.68 80 269l-3.812-.625c-11.89-2.707-21.254-10.243-28-20.25-6.408-11.264-8.69-23.109-5.75-35.812.728-3.924.91-5.642-.942-9.22a169 169 0 0 0-4.387-5.507c-7.133-8.746-8.651-21.79-7.972-32.804 1.182-10.664 4.247-19.95 11.676-27.845 3.943-4.808 3.583-9.399 3.348-15.288-.607-15.634 4.378-29.746 14.651-41.586 5.832-6.008 11.878-11.018 19.876-13.688 5.555-2.245 7.132-6.98 9.648-12.121C94.415 42.368 106.666 34.37 119 30c15.912-4.764 32.313-1.71 44.902 8.965"/><path fill="#9ACF46" d="M314 99c3.761 2.044 4.779 3.253 6 7.375 0 7.796-5.793 13.5-10.375 19.375-5.231 6.782-10.39 13.597-15.375 20.563-5.48 7.648-11.084 15.192-16.753 22.702-2.569 3.406-5.126 6.821-7.685 10.235l-3.019 4.023q-2.534 3.379-5.055 6.766c-4.399 5.904-8.889 11.725-13.425 17.524a744 744 0 0 0-14.5 19.187C228.04 234.637 222.129 242.387 216 250l-1.871 2.344c-2.49 3.029-4.49 5.177-8.129 6.656-5.692.294-8.37-.923-12.625-4.687A379 379 0 0 1 188 249a2556 2556 0 0 0-3.504-3.43c-5.494-5.4-10.88-10.832-15.86-16.715-1.955-2.217-4.032-4.279-6.136-6.355a163 163 0 0 1-9.348-10.066 250 250 0 0 0-5.523-6.024l-1.865-1.976q-1.845-1.95-3.702-3.892C130.863 188.695 130.863 188.695 131 182c1.33-4.478 3.312-7.952 7.25-10.562 3.178-1.489 6.02-1.975 9.535-1.293 5.011 1.935 9.052 5.54 13.215 8.855q3.09 2.378 6.188 4.75l3.269 2.523q5.94 4.577 11.918 9.102l1.981 1.515c7.107 5.575 7.107 5.575 15.452 8.578 4.482-.657 6.657-3.163 9.657-6.312l1.807-1.826c1.903-1.93 3.784-3.88 5.666-5.83a2569 2569 0 0 1 3.787-3.844c5.42-5.513 10.75-11.067 15.773-16.947 2.683-3.053 5.6-5.868 8.502-8.709 5.416-5.344 5.416-5.344 10.5-11 3.85-4.556 8.142-8.667 12.378-12.858 3.64-3.617 7.104-7.302 10.419-11.22 2.936-3.314 6.138-6.365 9.289-9.473a118 118 0 0 0 6.039-6.636C299.466 103.986 304.575 98.2 314 99"/><path fill="#00174A" d="M225 79c1.938 1.688 1.938 1.688 3 4-.198 5.252-1.954 9.226-4 14-1.601 6.774-.16 11.52 2 18 2.63 1.641 5.236 2.417 8.25 3.063l2.367.511c2.26.404 4.47.62 6.758.801 3.625.625 3.625.625 5.688 2.25 1.4 3.546.96 5.73-.063 9.375-1.937 2.719-1.937 2.719-5 5-3.36.51-6.62.29-10 .063-6.79-.6-6.79-.6-12.96 1.746-5.557 5.97-7.686 10.429-9.267 18.421-.819 2.933-1.674 4.58-3.773 6.77-3.973 1.104-6.09 1.415-9.875-.312C196 161 196 161 195 159c-.87-10.967 3.045-20.555 10-29 2.242-2.183 4.526-4.07 7-6l-1.094-2.246c-4.86-11.032-6.035-22.398-2.219-34.004 1.803-4.206 3.687-6.96 7.313-9.75 3.84-1.28 5.34-.601 9 1"/><path fill="#001749" d="M131 75c3.782 2.657 5.03 5.55 6 10 .579 6.538.083 12.013-2.344 18.125-.821 2.016-.821 2.016-.656 4.875a124 124 0 0 0 3.313 5.438c4.884 8.176 7.696 16.98 6.687 26.562-2.139 4.57-2.139 4.57-5 6-7.314.464-7.314.464-9.937-1.312-2.024-3.215-2.164-6.063-2.313-9.75-.474-5.939-2.398-12.586-6.75-16.938a67 67 0 0 0-4.367-.062l-2.684.023-5.625.078-2.691.023-2.472.036c-2.988-.135-4.72-.657-6.849-2.785-1.737-3.062-1.809-4.836-1.312-8.313 1.563-2.66 1.563-2.66 4-5 3.845-.584 7.486-.5 11.371-.469 4.473-.655 5.757-2.154 8.629-5.531l2-1c.081-3.89-.044-7.31-.812-11.125C119 80 119 80 121 77c3.722-2.481 5.608-2.719 10-2"/><path fill="#07122D" d="M110 163c1.938.688 1.938.688 4 2 1.184 2.591 1.303 4.157.336 6.848-1.449 2.868-2.47 4.77-5.461 6.09-2.875.062-2.875.062-5.137-.145-5.281-.348-8.166-.038-12.3 3.457-3.944 3.713-4.345 6.307-4.688 11.625.037 3.998 1.232 6.654 3.25 10.125l1 3c1.835 1.116 1.835 1.116 4 2l1.938 1.07c5.666 2.898 10.016 3.054 16.312 2.813 4.07.173 5.79 1.397 8.75 4.117 2.971 5.942.611 13.914-1 20h-1l.035-3.832.028-4.98.025-2.526.01-2.432.016-2.237c-.039-2.204-.039-2.204-1.114-4.993l-3.148.176c-8.621.34-15.7.303-22.852-5.176-5.154-4.779-8.64-9.189-9.312-16.312.537-6.348 1.953-10.831 6.812-15.125 5.097-4.103 10.34-3.89 16.664-4.282 2.735.032 2.735.032 3.836-1.281.136-3.663.165-6.506-1-10"/><path fill="#91BE2F" d="m273 171 2 1a1120 1120 0 0 1-26.875 35.813 726 726 0 0 0-14.312 18.937C228.04 234.637 222.129 242.387 216 250l-1.871 2.344c-2.478 3.016-4.462 5.255-8.129 6.656-2.752-.03-5.271-.545-8-1v-1h8l1-3 2.438-.875c2.761-.866 2.761-.866 3.562-3.437l1-2.688a279 279 0 0 1 5-5c3.709-4.467 7.056-8.994 10-14l3-3a96 96 0 0 0 2.625-3.5c.425-.588.85-1.176 1.29-1.781 1.26-1.843 1.26-1.843 2.085-4.719l3-2.437c3.08-2.216 3.08-2.216 3.875-4.875L245 206h3l.75-1.625c2.682-5.096 6.035-9.417 9.883-13.664 1.445-1.808 2.405-3.612 3.367-5.711h2v-3a180 180 0 0 1 4-4 198 198 0 0 0 3-5z"/><path fill="#08132C" d="M227 33c3.832.56 6.328 1.607 9.5 3.813l2.219 1.519c4.752 3.475 8.639 6.98 12.219 11.668l1.332 1.715c2.812 3.733 4.814 7.408 6.667 11.722 3.089 6.688 7.614 8.58 14.063 11.563 7.574 5.244 12.994 13.336 16 22v3h-3l-.445-1.652C283.013 89.803 278.7 81.907 271 77l-2.8-1.363c-7.997-4.013-11.028-8.06-14.567-16.13-5.258-11.294-14.72-18.393-25.2-24.562L227 34z"/><path fill="#0D1832" d="M231 119c2.083-.054 4.166-.093 6.25-.125l3.516-.07c3.111.188 4.704.442 7.234 2.195 2 3 2 3 1.938 6.375-1.158 4.474-2.231 5.872-5.938 8.625-3.36.51-6.62.29-10 .063-6.79-.6-6.79-.6-12.96 1.746-6.214 6.677-8.243 12.291-10.04 21.191-1.44-2.31-2.049-3.552-1.75-6.297 2.676-8.752 6.7-15.347 14.824-19.937 2.935-1.167 4.897-.538 7.926.234 1.872.134 3.749.213 5.625.25l2.79.078c3.065-.389 4.408-1.156 6.585-3.328.417-3.084.417-3.084 0-6-2.47-2.47-8.523-2-11.875-2.402L232 121z"/><path fill="#081A30" d="M162 65c1.922 3.254 2.271 5.729 2.335 9.486l.07 3.348.044 3.627.067 3.778q.085 5.033.145 10.064.04 3.1.088 6.2c.289 19.185.396 38.335-.749 57.497h-1c-.886-31.339-1.128-62.65-1-94"/><path fill="#93BF30" d="M132 179h1l-.062 3.375c.781 6.413 5.73 10.23 10.062 14.625a339 339 0 0 1 4.063 4.5l1.722 1.906C150 205 150 205 150 207l1.938.813C154 209 154 209 155 212l3 1v2h2l1 4h2v2l2.375.688c3.313 1.656 3.365 2.952 4.625 6.312l1.875.938c3.134 1.567 4.242 4.152 6.125 7.062a139 139 0 0 0 5 5l-1 2c-3.954-3.862-7.839-7.739-11.437-11.937-2.57-2.991-5.256-5.794-8.063-8.563a163 163 0 0 1-9.348-10.066 250 250 0 0 0-5.523-6.024l-1.865-1.976q-1.845-1.95-3.702-3.892C131.327 189.185 131.327 189.185 131 182z"/><path fill="#040E28" d="M107 230h1l.297 2.273C109.997 243.91 112.9 253.07 122 261c5.505 3.688 10.355 5.83 17 5l2-1c.537-5.36.537-5.36-1.5-10l-1.5-1c2.633.363 3.844.855 5.813 2.688 1.653 3.22 1.255 4.894.187 8.312-1.74 2.576-2.982 3.768-6.043 4.465-1.977.255-3.968.402-5.957.535v-2l-1.652-.375c-8.004-2.189-13.64-6.513-18.211-13.453-3.61-6.444-5.28-11.024-5.2-18.422l.028-3.266z"/><path fill="#95BD2A" d="M252 155c0 3.447-.319 3.705-2.59 6.066l-1.627 1.721-1.72 1.775a1457 1457 0 0 0-3.34 3.504l-1.508 1.561c-1.325 1.379-1.325 1.379-2.215 3.373h-2v2c-1.363 1.305-1.363 1.305-3.312 2.875-4.399 3.714-8.192 7.83-12.006 12.125-3.489 3.903-3.489 3.903-5.682 5l-1 3h-2v2h-2v2c-2.812 2.688-2.812 2.688-6 5l-3-1 2.551-2.535q4.73-4.704 9.455-9.416 2.036-2.028 4.076-4.055c9.485-9.373 9.485-9.373 18.416-19.267 2.814-3.236 5.888-6.218 8.94-9.227l1.927-1.914Q249.68 157.29 252 155"/><path fill="#030F28" d="m45 206 1 2-1 3c-1.226 14.414-.448 28.412 9 40l1.688 1.621C57 254 57 254 57 256l1.75.75c2.55 1.417 4.268 3.126 6.25 5.25-6.585-.73-9.832-5.225-14-10-8.224-10.544-10.887-23.361-9.676-36.523.848-5.713.848-5.713 1.676-8.477z"/><path fill="#020C25" d="M139 43v1l-2.309.332c-13.749 2.111-25 5.81-33.628 17.543-2.693 4.161-4.605 8.422-6.239 13.094-1.174 2.894-2.456 3.866-5.285 5.136l-2.914 1.082-2.898 1.106c-2.78.72-4.078.692-6.727-.293 6.326-3.873 6.326-3.873 10.504-4.66 3.785-1.049 3.785-1.049 5.613-4.719q.907-2.081 1.758-4.183c5.254-11.623 13.415-19.583 25.375-24.25 5.502-1.716 11.048-1.449 16.75-1.188"/><path fill="#040E26" d="M225 79c1.938 1.688 1.938 1.688 3 4-.198 5.252-1.954 9.226-4 14-1.601 6.774-.16 11.52 2 18 2 1.209 2 1.209 4 2v2c-4.389-1.724-6.915-4.83-9-9-.658-7.517-.334-13.356 3.172-20.059 1.23-2.883.776-5.025-.172-7.941-1.156-1.349-1.156-1.349-4.25-1.562-3.724.147-3.724.147-5.324 2.347A70 70 0 0 0 211 89c-.602-1.805-.602-1.805-1-4 1.738-3.342 3.172-5.477 6.375-7.5 3.514-.67 5.417-.034 8.625 1.5"/><path fill="#04102A" d="m85 66-3.402 1.652C72.802 72.037 65.244 76.185 59 84l-1.691 2.11C52.894 92.171 50.459 98.962 48 106h-1c.427-13.028 7.795-22.27 17-31 13.777-11.251 13.777-11.251 21-9"/><path fill="#96C436" d="m291 113 2 1c-2.675 5.583-5.849 8.781-10.559 12.746-3.543 3.271-6.384 7.007-9.3 10.836-3.17 3.58-6.927 5.32-11.141 7.418 4.342-5.138 8.826-10.103 13.438-15l1.908-2.04a357 357 0 0 1 11.291-11.515c1.47-1.42 1.47-1.42 2.363-3.445"/><path fill="#030E29" d="M81 269c1.772 2.658 2.647 4.66 3.688 7.625C90.384 291.098 101.64 297.737 115 304v1c-10.753-.686-18.847-7.336-26-15-4.062-5.513-7.045-11.444-9-18z"/><path fill="#06132C" d="M243 271c1 3 1 3-.04 5.34-5.73 9.388-12.657 14.603-23.515 17.293a49.6 49.6 0 0 1-7.07.555l-2.29.042C208 294 208 294 205 292l2.457-.078c10.718-.55 19.773-2.34 27.75-9.906 3.023-3.398 5.461-7.12 7.793-11.016"/><path fill="#030E2A" d="m39 139 2 1-.988 1.398-1.325 1.977-1.3 1.898c-4.157 8.173-4.882 16.3-5.074 25.352l-.104 3.332q-.123 4.02-.209 8.043c-3.6-3.6-2.988-9.091-3.054-13.992.266-9.876 2.837-21.79 10.054-29.008"/><path fill="#051327" d="M258 270h1c1.055 7.912-3.03 13.67-7.383 20.016-5.107 6.479-12.93 12.056-20.617 14.984-2.164-.437-2.164-.437-4-1l1.871-.848c12.644-5.985 21.925-14.033 27.402-27.109.71-1.997 1.254-3.978 1.727-6.043"/><path fill="#030F2C" d="M72 205h3c1.29 1.688 1.29 1.688 2.625 4 6.791 10.535 14.712 14.55 26.375 18v1c-7.303.996-12.91-2.18-19-6-4.431-3.631-8.59-7.729-11-13v-3z"/><path fill="#030F29" d="m168 285 1 3c-6.735 8.51-14.402 14.99-25 18-3.375.125-3.375.125-6 0 3.746-1.95 7.615-3.416 11.563-4.902 2.452-1.105 4.302-2.483 6.437-4.098h2v-2c1.426-1.367 1.426-1.367 3.313-2.875 2.638-2.18 4.798-4.236 6.687-7.125"/><path fill="#030E26" d="M56 216h1l.262 2.93C58.418 229.646 60.35 238.682 69 246l2.313 1.688L73 249v2c-7.22-2.398-11.985-8.533-15.5-15.125-2.54-6.25-1.814-13.265-1.5-19.875"/><path fill="#041240" d="M176 127h1l.076 3.457q.142 6.335.296 12.668.066 2.745.125 5.489.088 3.939.187 7.878l.05 2.488c.01 4.143.01 4.143 1.266 8.02.071 2.145.084 4.292.063 6.438l-.028 3.496L179 180v3c-2.062-1.75-2.062-1.75-4-4 .372-1.837.372-1.837 1-4 .084-1.618.118-3.24.114-4.86v-2.912l-.016-3.119-.005-3.211c-.005-3.383-.018-6.765-.03-10.148q-.008-3.442-.014-6.883-.017-8.434-.049-16.867"/><path fill="#020C1C" d="M163 112h1c.969 5.556 1.06 10.806.879 16.434l-.072 2.66a2745 2745 0 0 1-.244 8.344l-.159 5.685A5675 5675 0 0 1 164 159h-1q-.252-9.316-.482-18.634-.08-3.17-.166-6.34-.122-4.554-.23-9.108l-.083-2.87-.06-2.668-.061-2.349C162 115 162 115 163 112"/><path fill="#93C131" d="M172 188a221 221 0 0 1 15.063 10.625c4.49 3.41 8.787 6.097 13.937 8.375v1c-9.079.782-17.26-7.81-23.906-13.203-3.59-3.08-3.59-3.08-5.094-4.797z"/><path fill="#010E26" d="M131 75c2.365 1.867 3.66 3.32 5 6 .071 2.374.084 4.75.063 7.125l-.028 3.883L136 95h-1l-.113-2.45-.2-3.237-.175-3.2c-.55-3.343-1.599-5.348-3.512-8.113l-8 1-2 7-2-1c.482-6.382.482-6.382 2.625-8.937 3.352-1.5 5.745-1.517 9.375-1.063"/><path fill="#061029" d="M251 248c3.192 1.759 6.104 3.793 9 6-1.82.621-1.82.621-4 1l-2.875-1.937c-3.466-2.288-5.062-2.71-9.125-2.063-2.307 2.753-2.307 2.753-1.687 5.5A108 108 0 0 0 244 262l-2 1c-2.117-2.88-3.011-4.44-2.937-8.062 2.042-6.4 5.384-8.012 11.937-6.938"/><path fill="#030E27" d="m175 288 3 2.625q1.995 1.694 4 3.375l1.895 1.594c4.34 3.465 8.589 5.652 13.808 7.547 2.19.82 4.226 1.776 6.297 2.859-8.876 1.21-16.676-4.137-23.625-9.187-2.458-1.883-3.604-3.157-5.375-5.813z"/><path fill="#03112F" d="M192 47c-1.295 2.855-2.681 4.84-4.875 7.063-5.898 6.734-7.554 15.23-8.125 23.937h-1c-1.777-8.722.12-15.427 4.938-22.875C188.733 47 188.733 47 192 47"/><path fill="#0C152B" d="M259 209h2l2 8c8.548.159 8.548.159 17-1-2.685 3.474-5.801 4.16-10 5-3.897-.132-6.188-.459-9.437-2.625-2.115-3.214-1.853-5.61-1.563-9.375"/><path fill="#030E29" d="M239 60c5.63 4.587 8.306 11.778 10.563 18.5 1.085 3.552 1.085 3.552 3.625 5L255 84c-3.343.074-5.804.065-9-1l-.25-3.437c-.517-4.231-1.939-7.617-3.762-11.442-1.23-2.639-2.133-5.341-2.988-8.121"/><path fill="#05112A" d="m161 268 2 3c-4.29 8.071-8.232 15.22-17 19l-3-1 1.977-1.215C153.04 282.54 157.597 276.98 161 268"/><path fill="#010E2B" d="M134 97h1c.256 5.63.256 5.63-1.25 7.805L133 107a50 50 0 0 0 3.875 6.375c3.01 4.251 4.66 7.251 4.125 12.625-1.719-2.578-3.034-5.032-4.375-7.812-1.957-3.968-4.065-7.585-6.625-11.188l.875-1.625c1.292-2.728 2.21-5.501 3.125-8.375"/><path fill="#03112C" d="M95 269h2l.813 1.941c3.589 7.923 8.21 13.364 16.187 17.059v2c-6.798-1.53-11.724-5.692-15.621-11.355C95 272.777 95 272.777 95 269"/><path fill="#0A122A" d="M304 152c4.762 8.163 4.74 17.832 4 27l-2 3q-.506-5.531-1-11.062c-.095-1.039-.19-2.077-.29-3.147-.469-5.287-.83-10.483-.71-15.791"/><path fill="#010C2A" d="M140 44c6.547.279 11.141 2.598 16 7 2.394 3.146 4.486 6.339 6 10l-1 2-1.469-2.23C154.087 52.844 149.136 48.14 140 45z"/><path fill="#010C27" d="M64 97c1.242 3.834.366 5.62-1.164 9.297-1.86 6.015-2.192 12.46-2.836 18.703-2-2-2-2-2.312-5.875C57.866 111.25 59.689 103.617 64 97"/><path fill="#061128" d="M256 84c6.897.912 10.928 5.655 15.375 10.688C274.052 98.498 275 100.235 275 105h-2l-1.137-2.484-1.55-3.266c-.5-1.067-.998-2.135-1.512-3.234C265.689 90.806 261.397 88.51 256 86z"/><path fill="#0E1730" d="M196 146h3l-.5 2c-.637 3.82-.754 7.122-.5 11 3.445 2.296 5.938 2.54 10 3-2.583 1.689-3.929 2.003-7.062 1.875C198 163 198 163 196.125 161.5c-2.213-4.919-1.561-10.404-.125-15.5"/><path fill="#051A3C" d="m60 119 2 3-1 2 3.375-1c4.89-1.244 9.61-1.185 14.625-1l1 2q-4.094.505-8.187 1l-2.33.29c-3.852.462-7.595.835-11.483.71l1-3q.515-1.996 1-4"/><path fill="#94C339" d="M316 101c3 2 3 2 3.875 5.25.243 7.303-4.567 12.257-8.875 17.75-.613-1.84-.613-1.84-1-4 1.813-2.562 1.813-2.562 4-5l2-3h2l-.375-3.937c-.07-.731-.14-1.462-.21-2.215L317 104l-2-1z"/><path fill="#010E2A" d="M46 181c2.34 2.175 3.98 4.392 5.625 7.125 1.494 2.588 1.494 2.588 3.375 4.875 2.02.072 4.042.084 6.063.063l3.347-.028L67 193c-3.587 2.392-6.755 3.033-11 3-4.629-1.615-6.58-4.97-9.082-8.965C46 185 46 185 46 181"/><path fill="#0D1C35" d="M110 163c1.938.688 1.938.688 4 2 1.184 2.591 1.303 4.157.336 6.848-1.492 2.953-2.512 4.786-5.586 6.152-3.666 0-7.124-.447-10.75-1v-1l2.59-.402 3.347-.536 3.34-.527c2.627-.253 2.627-.253 3.723-1.535.136-3.663.165-6.506-1-10"/><path fill="#051233" d="M121 117h2q1.227 2.12 2.438 4.25l1.37 2.39c2 3.96 2.313 7.199 2.254 11.61l-.027 2.703L129 140h-2l-.043-2.055c-.336-6.556-1.669-11.231-4.898-16.949C121 119 121 119 121 117"/><path fill="#061027" d="M46 107h1v25c-3.916-7.831-3.59-15.515-2-24z"/><path fill="#010D27" d="m177 40 3 1-1.242 1.426-1.633 1.886-1.617 1.864c-1.672 1.959-1.672 1.959-3.508 4.824h-3c-2.25-2.812-2.25-2.812-4-6l1-3 1.875 2.438c1.867 2.6 1.867 2.6 4.125 3.562l.813-1.75c1.204-2.283 2.595-4.224 4.187-6.25"/><path fill="#8FBC37" d="M150 171c2 1.563 2 1.563 3 3l-3 1v-2c-5.273.445-10.018 1.084-15 3 1-3 1-3 3.563-4.75 4.51-1.64 6.773-1.32 11.437-.25"/><path fill="#020D28" d="m116 34-2.379 1.355C107.868 38.666 102.311 42.017 97 46v-3c2.266-1.973 2.266-1.973 5.25-4.062l2.953-2.098C111.8 32.5 111.8 32.5 116 34"/><path fill="#050D25" d="M121 237h2l.777 1.977c3.069 7.004 6.51 10.425 13.223 14.023l-3 1c-5.938-2.969-10.327-7.974-13-14z"/><path fill="#040F28" d="M32 183c2.224 2.224 2.757 3.755 3.813 6.688 1.82 4.73 4.07 8.33 7.187 12.312l-1 2c-5.232-5.423-9.62-11.342-10.25-19.062z"/><path fill="#8ABC34" d="M132 179h1v3.438c.671 5.957 4.9 9.528 9 13.562l-1 3q-1.949-2.084-3.875-4.187l-2.18-2.356c-2.886-3.646-4.097-6.114-3.57-10.77z"/><path fill="#020E2B" d="M121 87h1c.576 9.786.576 9.786-3 14-2 1.375-2 1.375-4 2l-3-1 3-2.375L118 97v-2h2z"/><path fill="#020F26" d="m301 197 1 3q-1.889 2.089-3.785 4.172c-2.177 3.275-2.121 6.987-2.215 10.828-1.562-1.687-1.562-1.687-3-4 .338-4.226 1.91-6.581 4.563-9.812l1.94-2.395z"/><path fill="#020F25" d="M97 162c-1.956.985-3.914 1.96-5.895 2.895-4.762 2.279-8.881 4.937-13.105 8.105.353-2.806.77-3.804 2.96-5.668.798-.501 1.594-1.003 2.415-1.52l2.398-1.542c3.858-2.2 6.861-2.367 11.227-2.27"/><path fill="#94C236" d="M308 125c0 4.06-2.052 6.114-4.437 9.188l-1.276 1.693A150 150 0 0 1 299 140h-1c-.312-2.187-.312-2.187 0-5 2.188-2.5 2.188-2.5 5-5l2.813-2.812z"/><path fill="#040D24" d="m208 128 2 1-2.687 2.938c-3.458 4.007-5.907 8.368-8.313 13.062-.703-1.648-.703-1.648-1-4 1.328-2.727 1.328-2.727 3.25-5.625l1.89-2.914C205 130 205 130 208 128"/><path fill="#040E27" d="m93 47 3 1-1.426 1.977C91.336 54.523 88.282 58.899 86 64c-.676-1.684-.676-1.684-1-4 1.145-2.473 1.145-2.473 2.813-5.062l1.644-2.598A1275 1275 0 0 1 93 47"/><path fill="#010F2B" d="M197 31c-2.624 1.75-5.195 3.197-8 4.625l-2.625 1.352C184 38 184 38 181 38c5.448-5.75 8.009-7.307 16-7"/><path fill="#091329" d="M179 269h2c5.371 9.41 5.371 9.41 7 14-5.339-2.966-7.095-5.18-9-11z"/><path fill="#86B937" d="M214 253c-4.24 4.033-6.9 5.885-13 6l-3-2h8l1-3c4.443-2.278 4.443-2.278 7-1"/><path fill="#09173C" d="M164 237c3.192 2.416 5.747 4.68 8 8l-6 3v-6h-2z"/><path fill="#020B22" d="M223 47c6.317.972 10.779 5.53 15 10l-1 2-1.54-1.39c-3.206-2.86-6.345-5.65-9.96-7.985L223 48z"/><path fill="#030B23" d="M282 218c2.462 3.693 2.12 5.213 1.75 9.563l-.266 3.503C283 234 283 234 281 236q-.04-3.375-.062-6.75l-.036-3.797c.078-2.738.27-4.872 1.098-7.453"/><path fill="#182137" d="M242 249h2l-1.062 2.188c-1.378 4.133-.28 6.784 1.062 10.812l-2 1c-2.17-2.95-3.035-4.409-2.812-8.125C240 252 240 252 242 249"/><path fill="#0A142C" d="M142 130c2 2 2 2 2.313 5.813-.076 3.79-1.007 6.112-3.313 9.187l-4-1c.645-.378 1.29-.755 1.953-1.145 2.287-1.716 2.287-1.716 2.656-4.554l.141-2.988.172-3.012z"/><path fill="#020B26" d="M208 107c1.749 2.623 2.615 4.495 3.563 7.438l.753 2.308A108 108 0 0 1 214 123c-3.089-2.78-4.877-4.975-6-9a97 97 0 0 1 0-7"/><path fill="#031433" d="M222 104h1l1.465 5.957c.445 1.7.98 3.376 1.535 5.043 2 1.209 2 1.209 4 2v2c-3.805-1.495-5.662-3.694-8-7-1.097-3.29-.8-4.713 0-8"/><path fill="#020F28" d="M78 84c0 2 0 2-1.61 3.656L74.25 89.5l-2.11 1.844C70.156 92.88 68.282 93.972 66 95c6.651-11 6.651-11 12-11"/><path fill="#071024" d="M282 257h2v2c-2.3 1.762-2.3 1.762-5.312 3.688l-2.989 1.949L273 266l-3-1 2.371-1.496 3.067-1.942 3.058-1.933c2.35-1.405 2.35-1.405 3.504-2.629"/><path fill="#172034" d="M247 121c1.508 1.285 1.508 1.285 3 3-.167 4.602-.86 7.587-4 11l-3-1 2-1.437c2.897-3.712 2.35-7.017 2-11.563"/><path fill="#91C132" d="m211 197 1 2c-1.355 4.066-3.57 5.53-7 8l-3-1z"/><path fill="#010A25" d="M81 124c5.656-.566 9.226 1.286 14 4l-1 3q-2.408-1.184-4.812-2.375l-2.708-1.336C84 126 84 126 81 124"/><path fill="#242F39" d="m276 108 1 3 7-3v2l-1.875.25c-2.31.563-2.31.563-3.375 2.813L278 115h-2a129 129 0 0 1-1-6z"/><path fill="#050E25" d="m189 283 11 6v3a481 481 0 0 1-4.937-2.812l-2.778-1.583C190 286 190 286 189 283"/><path fill="#040B1F" d="M240 297v3c-1.408.87-2.826 1.72-4.25 2.563l-2.39 1.44c-2.668 1.127-3.705 1.014-6.36-.003l2.082-1.023 2.73-1.352 2.708-1.336c2.626-1.308 2.626-1.308 5.48-3.289"/><path fill="#192E30" d="M177 169h1q.252 2.656.5 5.313l.281 2.988C179 180 179 180 179 183c-2.125-1.375-2.125-1.375-4-4 .249-3.448 1.062-6.68 2-10"/><path fill="#030A2A" d="M140 291c-2.663 2.663-4.653 2.944-8.36 3.098l-2.39-.036-2.422-.027L125 294v-1c5.225-1.467 9.581-2.226 15-2"/><path fill="#25363B" d="m295 157 1 3-2 4c-.387 2.325-.73 4.659-1 7h-1c-1.61-8.035-1.61-8.035.938-12.062.68-.64 1.36-1.28 2.062-1.938"/><path fill="#020C29" d="M150 32c4.874.453 7.39 1.709 11 5l-1 2q-2.504-1.463-5-2.937l-2.812-1.653L150 33z"/><path fill="#061126" d="M279 237h2c-1.277 4.993-3.173 7.576-7 11 .671-4.194 2.856-7.403 5-11"/><path fill="#082244" d="m105.188 101.813 3.855.082L112 102v1H99l-1 3-3-1c2.73-3.866 5.742-3.31 10.188-3.187"/><path fill="#020D22" d="M242 43c3.256.241 4.728 1.522 6.813 3.875L251 50l-1 3a1678 1678 0 0 1-4-4.437l-2.25-2.497C242 44 242 44 242 43"/><path fill="#020D2D" d="m70 207-2.152.586-2.785.789-2.778.773c-2.452.619-2.452.619-3.285 2.852.125-1.875.125-1.875 1-4 3.787-1.767 6.049-2.191 10-1"/><path fill="#162C3C" d="M163 167c4.142 1.38 5.322 3.598 8 7-3 0-3 0-5.687-2.375C163 169 163 169 163 167"/><path fill="#1C2A36" d="M302 149h2c-1.186 3.375-2.276 5.647-5 8l-3-1a418 418 0 0 1 2.875-3.5l1.617-1.969z"/><path fill="#8EB73E" d="M261 145c0 3.544-.61 4.103-2.875 6.688l-1.617 1.886C255 155 255 155 253 155c1.65-4.292 4.738-6.88 8-10"/><path fill="#010E31" d="M96 131c1.875.625 1.875.625 4 2 1.25 3.125 1.25 3.125 2 6l-2 1c-4-6.75-4-6.75-4-9"/><path fill="#8DBC37" d="M158 177q1.974 1.43 3.938 2.875l2.214 1.617C166 183 166 183 167 185l-1.687-.875c-2.398-1.166-4.829-2.159-7.313-3.125z"/><path fill="#8EB742" d="M310.5 98.75C314 99 314 99 316 101c-4.018.841-7.018 1.054-11 0 2-2 2-2 5.5-2.25"/><path fill="#00092C" d="M72 182h2l-2 10-2-1c.875-7.875.875-7.875 2-9"/><path fill="#070F27" d="M110 163c1.938.688 1.938.688 4 2 .75 2.625.75 2.625 1 5h-3z"/><path fill="#071733" d="M121 77c1.108 3.325.845 5.622 0 9l-2-1c.875-6.875.875-6.875 2-8"/><path fill="#021235" d="M219 77c3.125.75 3.125.75 6 2l1 2-10-2z"/><path fill="#005" d="m211 46 3 1Z"/><path d="m127 268 2 1Z"/><path fill="#000040" d="m31 191 2 1Z"/><path d="m91 159 2 1ZM60 142l2 1Z"/><path fill="#002080" d="m202 46 2 1Z"/></svg>